<svg version="1.1" id="Layer_1" xmlns="http://www.w3.org/2000/svg" xmlns:xlink="http://www.w3.org/1999/xlink" x="0px" y="0px"
	 width="100%" viewBox="0 0 640 480" enable-background="new 0 0 640 480" xml:space="preserve">
<path fill="#000000" opacity="1.000000" stroke="none" 
	d="
M95.644928,271.999878 
	C95.646149,188.684967 95.647408,105.870049 95.649330,23.055138 
	C95.649498,15.665592 95.651474,15.642957 102.933388,15.642697 
	C248.401001,15.637516 393.868622,15.637064 539.336243,15.639945 
	C546.312378,15.640083 546.332397,15.658443 546.332764,22.820868 
	C546.339539,168.288528 546.342041,313.756195 546.342407,459.223846 
	C546.342407,466.367859 546.329590,466.382507 539.300598,466.384247 
	C463.150970,466.402924 387.001312,466.427612 310.851685,466.428528 
	C241.544769,466.429321 172.237839,466.404724 102.930923,466.385406 
	C95.653625,466.383392 95.647865,466.364777 95.647614,458.956940 
	C95.645500,396.804596 95.645668,334.652252 95.644928,271.999878 
M314.502258,374.660126 
	C323.325531,374.651398 332.149048,374.674561 340.971832,374.604126 
	C342.532257,374.591675 344.205261,375.008698 345.415192,373.179138 
	C348.409912,368.650879 349.329742,362.625732 354.897125,359.897186 
	C355.298553,359.700500 355.519318,358.672485 355.458374,358.067841 
	C354.947815,353.005310 359.897949,350.501923 361.057739,345.960999 
	C361.869690,342.782166 363.313538,339.146057 366.658020,336.460388 
	C371.380859,332.667969 371.178040,327.176422 366.151215,323.695160 
	C362.013184,320.829437 361.700745,316.379822 360.065155,312.772827 
	C358.390778,309.080383 355.820862,305.880524 354.471283,301.918091 
	C353.243164,298.312347 348.494720,296.653412 347.943695,291.783356 
	C347.732788,289.919342 345.136993,287.266357 341.602814,287.316803 
	C328.120911,287.509277 314.632629,287.271301 301.151459,287.488739 
	C296.858734,287.557953 293.666199,289.712830 293.388763,294.604034 
	C293.333160,295.584412 293.417999,296.577393 292.330444,297.190796 
	C286.255829,300.617126 285.860962,307.745270 282.198273,312.697601 
	C279.623047,316.179474 280.052307,320.863098 275.790863,323.879669 
	C269.441406,328.374268 271.408203,334.688934 276.083771,337.696472 
	C280.517181,340.548370 281.148132,345.158081 281.830292,348.441376 
	C283.183929,354.956482 286.441681,359.435883 291.159546,363.285187 
	C292.436310,364.326904 293.106110,365.133026 293.385498,366.747925 
	C294.410919,372.674805 296.911957,374.636200 303.015656,374.654022 
	C306.511658,374.664246 310.007690,374.658447 314.502258,374.660126 
M282.525909,171.807709 
	C285.650085,178.308624 291.239014,183.212997 294.070007,189.992233 
	C294.990692,192.196930 296.782166,194.750824 300.393280,194.696869 
	C314.053558,194.492859 327.718079,194.573853 341.381012,194.547180 
	C343.454956,194.543121 344.708130,193.114227 346.322723,192.170731 
	C349.623413,190.241943 348.190063,186.501511 351.053070,184.020676 
	C355.054138,180.553635 356.620239,174.410049 359.757233,169.769287 
	C362.179169,166.186295 361.780670,161.394882 366.123657,158.490311 
	C371.819153,154.681198 370.450897,147.679001 365.684418,143.977905 
	C364.792908,143.285675 363.312714,143.425430 362.896637,142.087296 
	C361.175293,136.550949 359.263611,131.213684 356.281769,126.072807 
	C354.831573,123.572563 353.642975,120.923317 351.362610,119.310280 
	C349.529236,118.013420 349.040070,116.651375 348.427765,114.628441 
	C347.464508,111.445625 346.311676,107.493202 341.907715,107.451355 
	C328.079193,107.319931 314.248505,107.398499 300.418823,107.450439 
	C298.991028,107.455795 297.458588,107.306664 296.504639,108.988594 
	C294.873535,111.864426 292.414124,114.385727 293.353790,118.001068 
	C286.299316,120.250404 285.273926,126.876610 282.486847,131.955856 
	C280.205658,136.113144 280.430573,141.223557 275.875610,144.688293 
	C270.676971,148.642609 270.821503,154.794128 275.731934,158.388168 
	C280.204926,161.661987 280.573883,166.622971 282.525909,171.807709 
M430.657898,144.980377 
	C430.098419,147.504868 431.313599,150.983047 425.517395,151.206894 
	C428.816040,152.722427 429.581787,154.472794 430.658569,156.133575 
	C433.464203,160.460876 433.061371,165.803680 436.429596,170.034027 
	C438.994598,173.255615 442.904724,175.590652 444.175507,179.712921 
	C445.623077,184.408676 448.555237,188.205429 450.930267,192.356461 
	C452.049683,194.312988 453.489624,194.660782 455.423706,194.656906 
	C468.913818,194.629944 482.403992,194.640823 495.894165,194.633698 
	C497.403137,194.632904 498.528320,193.701401 499.804596,193.152908 
	C504.459045,191.152725 502.997131,185.677704 506.373505,182.904770 
	C508.783417,180.925583 510.181305,177.891510 511.570679,174.797958 
	C512.708984,172.263504 512.327698,168.576324 515.211975,166.752823 
	C518.156250,164.891388 519.201477,161.525482 521.096558,159.110886 
	C525.661194,153.294968 525.098206,149.472336 521.079285,143.750946 
	C519.326233,141.255295 518.184387,138.207642 515.481812,136.389725 
	C514.595032,135.793228 513.898682,135.344467 513.734619,134.236023 
	C512.804810,127.953468 510.483612,122.376884 505.188354,118.505745 
	C503.891510,117.557678 503.812286,116.418411 503.628510,115.088135 
	C503.125671,111.448883 498.344421,107.402367 494.549896,107.392967 
	C482.059052,107.362030 469.560242,107.622025 457.080780,107.239555 
	C451.604340,107.071724 449.888702,110.649124 448.550385,114.372231 
	C447.067963,118.496414 444.223114,121.724503 442.360840,125.575233 
	C440.813171,128.775482 435.682068,130.082458 437.341736,135.085602 
	C437.439453,135.380112 436.925964,136.216278 436.633911,136.249634 
	C433.050659,136.659164 433.212982,139.177734 433.416412,141.757462 
	C433.561157,143.593430 431.453064,143.317963 430.657898,144.980377 
M452.006622,288.197571 
	C451.224884,290.048157 448.553406,290.554047 448.475677,292.807739 
	C448.319733,297.330383 443.384796,299.536652 443.064972,304.149170 
	C443.018951,304.813110 441.896698,307.281982 440.172882,308.333984 
	C436.232391,310.738708 434.667694,314.773743 433.273560,319.005310 
	C431.959473,322.994080 430.564819,327.034729 428.380371,330.417053 
	C430.820801,333.761383 431.056793,338.370819 433.343292,342.021179 
	C435.560486,345.560913 437.039856,349.508240 439.763916,352.789886 
	C443.538818,357.337463 446.429779,362.394958 448.479065,368.029755 
	C449.610229,371.140106 451.008484,374.688782 455.583801,374.663116 
	C468.909027,374.588501 482.235199,374.683105 495.560516,374.616760 
	C499.876099,374.595276 502.420715,370.960754 503.264435,367.991089 
	C504.218597,364.632812 505.792511,362.360687 508.371552,360.794342 
	C510.112793,359.736816 510.629517,358.612061 510.658234,356.837585 
	C510.722900,352.842468 513.042419,347.514008 514.738281,346.605194 
	C520.109741,343.726898 519.928406,337.608582 523.950562,334.104065 
	C525.645630,332.627075 526.239807,327.718231 522.513794,325.442841 
	C521.365112,324.741364 520.485901,324.014221 520.750549,322.807770 
	C521.479858,319.483582 518.862732,317.561462 517.052734,316.366852 
	C514.678894,314.800079 514.425293,312.781555 513.287720,310.752136 
	C511.630005,307.794861 511.548859,304.007507 509.154999,301.755524 
	C506.404022,299.167572 504.247925,296.764282 503.356201,292.821869 
	C502.716034,289.991394 499.689331,287.521637 496.614929,287.507690 
	C481.972107,287.441132 467.319946,286.878571 452.006622,288.197571 
M203.604324,308.991150 
	C200.625977,307.367310 198.616302,304.832367 197.734650,301.664886 
	C196.586288,297.539093 193.331787,294.607849 191.963165,290.549835 
	C191.349457,288.730194 189.202133,287.252625 186.358398,287.297455 
	C173.033417,287.507629 159.703415,287.385315 146.375488,287.444733 
	C144.825378,287.451630 143.502716,288.373840 142.127975,288.973358 
	C137.411102,291.030487 138.715424,296.289337 135.734711,299.274994 
	C134.403732,300.608185 131.958984,300.872894 131.545868,303.010529 
	C130.308899,309.411285 127.824921,315.017242 122.307625,318.966095 
	C120.268684,320.425446 122.299461,323.466339 120.024536,325.210999 
	C116.129860,328.197723 116.196793,332.774292 120.019417,335.839996 
	C120.938034,336.576660 121.360725,337.363129 121.269272,338.328979 
	C120.925453,341.959900 123.706123,343.614471 125.964310,345.303223 
	C127.249184,346.264099 127.767250,347.148041 128.426468,348.550812 
	C130.617477,353.213135 130.340073,359.140625 135.483658,362.364380 
	C137.270477,363.484253 137.815369,365.496155 138.597107,367.562012 
	C139.838898,370.843719 141.914978,374.569946 146.379517,374.604736 
	C159.873520,374.709869 173.368896,374.634766 186.863724,374.648926 
	C188.643463,374.650787 189.631866,374.123291 190.699799,372.345917 
	C194.184326,366.546570 196.714706,360.216278 200.731079,354.703461 
	C201.828491,353.197174 204.182663,352.849731 204.374344,350.806396 
	C205.047302,343.632904 211.343414,338.846039 212.351379,331.813843 
	C212.427307,331.284271 213.455887,330.891235 214.239609,330.280426 
	C210.342361,329.118256 212.741257,325.165619 210.872070,323.498413 
	C206.639160,319.722900 205.663818,314.541595 203.604324,308.991150 
M207.691132,140.536942 
	C207.256256,136.652130 203.580002,133.858429 204.010193,129.651749 
	C204.038803,129.371918 203.353500,128.912308 202.919464,128.708038 
	C197.112762,125.975441 197.180618,119.224930 193.528809,114.993134 
	C191.228302,112.327271 191.396667,107.385033 186.259766,107.389565 
	C173.095322,107.401161 159.930817,107.402740 146.766418,107.370728 
	C142.034668,107.359222 139.736343,111.137680 138.679443,114.352669 
	C137.598740,117.640083 136.048401,119.790115 133.349915,121.368614 
	C132.234344,122.021172 131.215134,122.675087 131.440460,123.951981 
	C132.195084,128.228699 126.706406,130.604019 128.127762,135.079681 
	C128.212570,135.346725 127.378738,136.049042 126.856354,136.341766 
	C123.756348,138.078781 122.782036,141.332809 120.904335,143.893661 
	C116.681885,149.652374 116.446671,153.449448 120.908669,159.190491 
	C122.686737,161.478256 123.764763,164.713913 126.425323,166.568893 
	C127.274750,167.161102 128.055374,167.517944 128.254120,168.650955 
	C129.346176,174.876678 132.354736,180.114029 136.818604,184.492844 
	C137.736237,185.392990 138.121078,186.250046 138.343582,187.439026 
	C139.127075,191.625977 142.733017,194.614014 147.190689,194.628662 
	C160.188354,194.671356 173.186356,194.625366 186.184174,194.597977 
	C187.654251,194.594879 189.126236,194.780548 190.309052,193.410645 
	C193.122299,190.152390 195.723541,186.043594 196.976807,182.623688 
	C199.287994,176.316925 205.586472,172.526611 206.493240,166.112198 
	C207.142487,161.519592 211.835922,159.122238 211.546494,154.465302 
	C211.418167,152.400345 213.584412,152.570297 214.325882,151.433380 
	C210.759460,148.908905 211.839859,143.457428 207.691132,140.536942 
M272.960571,409.689270 
	C275.830170,404.368896 278.936340,399.156708 281.444519,393.671082 
	C282.355499,391.678650 284.771118,391.999603 285.282135,390.112061 
	C286.691650,384.905914 288.304901,379.834503 292.252838,375.844910 
	C292.687134,375.406006 292.755463,373.771027 292.395691,373.507782 
	C288.243286,370.469116 288.747803,364.304260 284.272675,361.549072 
	C283.434662,361.033112 282.384521,360.724792 282.168610,359.586487 
	C280.888641,352.839264 278.251648,346.923248 272.400787,342.794434 
	C271.799103,342.369873 271.838715,340.979980 271.659546,340.023254 
	C270.936951,336.164703 266.532959,332.421753 262.550873,332.412537 
	C250.395782,332.384399 238.240540,332.371033 226.085526,332.409149 
	C224.125137,332.415314 221.137207,331.503845 220.407928,333.102936 
	C218.621429,337.020264 213.632599,338.263550 212.690353,342.107574 
	C211.677795,346.238403 208.138367,348.668945 207.044922,352.862640 
	C206.491104,354.986725 206.410980,358.771606 204.349243,359.833435 
	C198.930176,362.624268 199.727783,369.562134 194.942169,372.681671 
	C193.882706,373.372314 193.675171,376.258087 195.459732,377.060364 
	C199.878021,379.046570 198.997040,383.873718 200.908783,387.131409 
	C203.083832,390.837738 205.007614,395.114594 207.356628,398.663635 
	C210.219864,402.989655 213.975662,407.363831 215.707123,411.808624 
	C217.478302,416.355377 219.359634,416.702515 223.035156,416.682709 
	C236.688492,416.609100 250.347748,416.435974 263.993439,416.767365 
	C269.106262,416.891571 272.325226,415.909119 272.960571,409.689270 
M275.715118,233.990463 
	C275.747803,235.317551 275.836243,236.515045 274.421112,237.466614 
	C271.164276,239.656494 272.169983,241.687256 273.974152,244.768524 
	C275.815765,247.913773 277.774414,251.156662 279.226959,254.494598 
	C281.418701,259.531219 283.242371,264.689941 287.534393,268.349579 
	C288.671967,269.319550 289.319305,270.173248 289.357788,271.603363 
	C289.466492,275.640625 294.476410,277.288239 294.235687,281.660217 
	C294.185791,282.566254 296.191711,282.592590 297.352081,282.593811 
	C313.184723,282.610413 329.017365,282.603180 344.849945,282.629883 
	C346.950439,282.633423 348.369812,282.056915 348.595886,279.649597 
	C349.001465,275.331177 352.338806,272.354126 354.309723,268.857971 
	C355.600128,266.569031 354.168640,263.007294 357.233032,261.991638 
	C363.719910,259.841614 362.686523,252.726532 366.328552,248.538162 
	C369.328796,245.087830 370.764191,240.180115 367.006195,234.979172 
	C365.692993,233.161728 363.176361,230.581894 363.207764,228.980042 
	C363.341400,222.158691 355.798492,220.430313 354.431305,214.255188 
	C353.813812,211.466156 350.561646,207.340027 349.294098,204.290436 
	C347.438080,199.825119 345.304382,199.389725 341.692169,199.391739 
	C328.692688,199.398987 315.692047,199.297363 302.694550,199.456635 
	C299.693298,199.493393 295.069122,197.749146 294.052368,200.920776 
	C293.043884,204.066620 290.366425,206.189621 289.895477,208.565399 
	C289.297760,211.581009 287.801178,213.219528 286.180328,215.320129 
	C282.788300,219.716156 279.253845,224.126587 279.033020,230.089127 
	C277.741364,231.056976 274.903503,230.410965 275.715118,233.990463 
M405.499207,416.657135 
	C410.830261,416.650330 416.161407,416.661285 421.492249,416.623962 
	C422.795227,416.614838 424.768768,416.881012 424.993103,415.439178 
	C425.492523,412.229004 428.956116,409.719025 429.003448,407.858063 
	C429.177094,401.029266 435.104553,397.757996 437.883148,392.991760 
	C441.084839,387.499634 441.143250,379.936981 447.271301,376.068756 
	C447.738678,375.773743 447.687164,373.438904 447.379974,373.318390 
	C443.149750,371.658356 444.691956,366.518982 441.774475,364.208771 
	C436.647064,360.148529 435.442780,353.802307 432.267334,348.637085 
	C430.016479,344.975800 430.361969,339.591461 425.419312,337.552521 
	C424.429718,337.144287 423.256470,336.153687 422.993744,335.203308 
	C422.200928,332.335205 420.127686,332.397949 417.896423,332.399445 
	C404.901917,332.408264 391.907410,332.393158 378.912903,332.384705 
	C376.858978,332.383392 375.662323,333.631348 374.033203,334.742371 
	C370.119354,337.411469 370.732330,342.298462 367.570343,345.231934 
	C366.263092,346.444672 363.480774,346.096771 363.549683,348.370087 
	C363.674622,352.491608 359.051483,355.063232 360.205811,359.451935 
	C360.425629,360.287781 359.812927,361.074524 358.898132,361.316162 
	C352.739746,362.943085 354.375732,370.538483 349.642487,373.457947 
	C348.633118,374.080505 349.296356,376.686310 351.216278,377.507324 
	C352.165283,377.913116 353.042694,378.250946 353.221985,379.441833 
	C354.072418,385.089661 356.315399,390.261108 360.664459,393.852203 
	C363.542908,396.229034 362.209869,400.282867 364.579437,401.981598 
	C368.413086,404.729889 368.482178,409.158447 370.023865,412.712891 
	C371.250824,415.541534 372.068512,416.704102 375.012268,416.679413 
	C384.840729,416.597015 394.670380,416.653534 405.499207,416.657135 
M395.500183,65.376389 
	C388.669922,65.385506 381.839203,65.353294 375.009796,65.434639 
	C373.427643,65.453476 370.838074,65.083687 370.756042,66.986732 
	C370.618896,70.169029 368.223816,72.227165 367.658020,74.831367 
	C366.650177,79.470306 363.511627,82.780197 361.311066,86.547318 
	C358.088043,92.064865 353.679810,96.877190 353.128082,103.706573 
	C348.245880,106.116776 348.085419,107.185493 352.308868,110.789261 
	C353.038727,111.412018 353.423370,112.098915 353.308746,112.905342 
	C352.766083,116.724106 355.983063,118.281548 357.907440,120.574509 
	C358.501801,121.282715 359.566315,121.533989 359.928680,122.616829 
	C361.952087,128.663025 363.227966,135.152771 369.432190,138.762482 
	C370.412292,139.332733 370.191803,140.504456 370.352539,141.476807 
	C371.079132,145.872833 375.225586,149.592819 379.634430,149.620529 
	C389.796173,149.684402 399.958801,149.685806 410.120636,149.630402 
	C415.968353,149.598511 422.555969,151.396027 425.369141,143.507004 
	C425.998291,141.742599 429.808105,143.069885 429.537231,140.098114 
	C429.156219,135.917374 432.567047,133.105789 433.458649,129.228989 
	C433.991150,126.913559 435.574554,122.270424 438.218262,121.069313 
	C443.861572,118.505394 442.580658,111.479218 447.360016,108.665871 
	C447.762085,108.429184 447.587616,106.035461 447.272980,105.936096 
	C442.807739,104.526054 443.455994,99.771805 441.827484,96.802452 
	C440.157806,93.758011 438.000977,90.803001 436.810272,87.534744 
	C436.118195,85.635017 435.586395,84.415573 433.902924,82.959587 
	C429.852173,79.456154 428.218750,73.992882 425.997589,69.309784 
	C424.531952,66.219688 423.438477,65.327103 420.489227,65.354141 
	C412.493500,65.427444 404.496582,65.377747 395.500183,65.376389 
M506.749939,270.656555 
	C508.406921,267.663940 512.789490,266.959381 513.452820,263.354645 
	C514.301514,258.742157 518.025208,255.762329 519.452087,251.462646 
	C520.499268,248.306778 520.841309,244.531509 524.407654,242.550323 
	C524.891479,242.281540 524.789368,239.484070 524.393677,239.332581 
	C520.105225,237.690613 520.950256,233.078735 519.032776,230.101715 
	C517.170227,227.210022 515.410278,223.976746 514.097046,220.886871 
	C513.061462,218.450287 512.258118,215.645264 510.197754,214.606613 
	C505.579437,212.278519 505.408875,207.318085 504.150024,203.784714 
	C502.784027,199.950623 501.395355,199.324997 498.089600,199.345047 
	C484.926056,199.424896 471.721436,199.994888 458.613098,199.140274 
	C450.955872,198.641052 447.881714,204.138626 444.989410,208.321381 
	C442.182129,212.381165 440.425385,217.507339 437.854553,222.080292 
	C434.598663,227.871796 430.388123,232.965927 427.150726,238.709534 
	C426.002167,240.747238 425.610199,242.935013 427.965485,244.363632 
	C429.160797,245.088669 430.499817,245.542450 430.252106,247.154785 
	C429.752502,250.406158 432.270081,252.377426 434.079773,253.672867 
	C437.836029,256.361816 438.904907,260.717377 440.744995,264.154602 
	C443.845398,269.946136 446.421844,275.810760 451.124481,280.643097 
	C452.476929,282.032867 453.498230,282.635956 455.175537,282.636017 
	C470.005829,282.636566 484.836090,282.633606 499.666382,282.615814 
	C500.983795,282.614227 503.190918,282.640625 503.054443,281.333862 
	C502.633636,277.304840 506.875977,275.226837 506.749939,270.656555 
M274.581360,74.847115 
	C273.678772,72.455322 271.298004,70.943695 271.109161,67.988899 
	C270.977081,65.922478 268.738495,65.423851 266.798370,65.422470 
	C251.306946,65.411446 235.815460,65.405128 220.324158,65.450401 
	C218.889908,65.454590 216.894806,65.263245 216.603897,67.170937 
	C215.635651,73.520515 211.244797,77.856468 207.743103,82.697792 
	C206.902298,83.860268 205.390457,84.491226 205.389755,86.262550 
	C205.388031,90.573402 201.225113,92.867828 200.062210,96.975632 
	C199.462128,99.095329 199.627396,102.608566 197.323624,104.312263 
	C194.104416,106.692932 192.494766,108.744759 197.336456,110.989632 
	C198.202621,111.391235 198.271255,112.310776 198.310608,113.138031 
	C198.477280,116.642349 200.702911,118.787567 203.428574,120.372810 
	C204.575668,121.039963 205.107224,121.633018 205.350922,122.916077 
	C206.600784,129.496964 211.320724,134.692474 212.791779,141.220261 
	C212.924759,141.810379 214.020111,142.196930 214.686966,142.650925 
	C216.596375,143.950851 218.509995,145.305725 219.405289,147.514664 
	C220.206696,149.491928 221.757675,149.627716 223.476791,149.627975 
	C236.636383,149.630020 249.795975,149.631256 262.955566,149.634430 
	C265.042572,149.634933 266.264313,148.677338 267.858429,147.117615 
	C271.701263,143.357758 271.836151,136.738632 277.707275,134.673767 
	C278.139252,134.521851 278.480865,133.571106 278.532410,132.963547 
	C279.019836,127.214417 281.991394,122.548241 285.911102,118.832779 
	C288.934570,115.966812 287.919037,110.840340 292.239868,108.959373 
	C292.630005,108.789536 292.707550,106.407417 292.338867,106.220741 
	C288.834473,104.446388 289.477936,100.137634 287.387054,98.047508 
	C285.208557,95.869759 286.830292,92.400215 284.858643,91.471947 
	C278.971558,88.700233 280.043396,81.101295 274.874634,78.000175 
	C274.460327,77.751610 274.694550,76.422058 274.581360,74.847115 
M120.568878,245.132080 
	C121.951706,247.445175 122.158859,250.181778 123.444794,252.671722 
	C124.905045,255.499176 127.096619,258.230865 127.896393,261.075928 
	C128.678101,263.856689 129.926132,266.512726 131.805710,267.473389 
	C136.426926,269.835236 136.237152,274.733124 137.898987,278.279663 
	C139.358429,281.394257 140.208054,282.723267 143.558762,282.694000 
	C157.713028,282.570343 171.868744,282.596954 186.023895,282.609650 
	C188.094345,282.611511 189.438263,282.023254 191.083878,280.385773 
	C194.937302,276.551453 198.311035,272.264587 199.900970,267.333984 
	C200.947357,264.088989 203.662094,261.966705 204.256805,259.193665 
	C204.870758,256.330872 206.019150,253.681564 208.028046,252.754547 
	C212.397690,250.738159 210.751816,244.831314 215.216736,242.958542 
	C216.057907,242.605728 216.340668,238.779083 214.154037,237.786972 
	C212.028992,236.822815 211.564362,235.506134 211.602585,233.553467 
	C211.631210,232.090973 211.086975,231.008835 209.641205,230.419144 
	C204.241669,228.216949 203.402603,222.266418 201.264420,218.145905 
	C198.218689,212.276352 195.904846,206.235992 191.021790,201.478638 
	C189.707031,200.197708 188.609985,199.391937 186.832291,199.393661 
	C172.010986,199.407974 157.189667,199.396225 142.368393,199.414627 
	C140.678223,199.416718 138.977051,199.484787 138.476547,201.665329 
	C137.145859,207.462738 134.964096,212.767792 129.956345,216.472626 
	C129.335739,216.931763 128.530304,217.779587 128.572647,218.394852 
	C128.898376,223.127563 124.416054,225.570374 123.123169,229.770660 
	C122.290802,232.474854 122.220894,237.165939 117.823738,238.940628 
	C116.738708,239.378540 116.252930,243.732910 120.568878,245.132080 
M428.539551,320.925964 
	C431.747131,312.978088 434.623932,304.738800 440.773804,298.541931 
	C443.395172,295.900482 442.439301,291.698975 445.334717,289.873871 
	C447.536713,288.485931 447.228058,286.769836 447.692719,284.885010 
	C448.628052,281.090912 444.959137,280.424835 443.531525,278.311432 
	C439.099609,271.750610 437.238434,263.484589 430.460510,258.471069 
	C430.117523,258.217377 429.863159,257.570740 429.892700,257.128815 
	C430.192535,252.646011 424.491608,251.200943 424.656464,246.665604 
	C424.693207,245.654907 422.861328,245.424225 421.663818,245.424698 
	C405.683624,245.431091 389.703400,245.428757 373.723297,245.477097 
	C372.422943,245.481033 370.887085,245.572174 370.528107,247.259323 
	C369.386627,252.623886 366.824097,257.110260 363.467041,261.503784 
	C359.686462,266.451599 356.584473,272.032013 353.955078,277.693817 
	C352.765320,280.255646 352.588776,282.971008 349.864716,284.886475 
	C348.592224,285.781250 349.065216,288.393860 351.114136,289.465149 
	C353.700439,290.817413 355.790741,293.354370 356.050842,295.647858 
	C357.091370,304.822968 363.428619,310.737000 368.539978,317.372650 
	C369.497406,318.615662 370.150574,319.563995 370.374847,321.072479 
	C370.929871,324.805756 375.516266,328.636322 379.353302,328.642975 
	C389.674072,328.660858 400.003601,328.373779 410.312683,328.717133 
	C416.955139,328.938354 423.100677,328.952881 426.570007,321.938629 
	C426.738098,321.598785 427.451447,321.528595 428.539551,320.925964 
M368.982910,422.209320 
	C369.449768,414.948212 364.161316,409.851257 361.326691,404.056946 
	C358.565857,398.413513 354.225220,393.581970 352.082581,387.269745 
	C351.263092,384.855499 348.504730,382.769714 347.989960,379.602722 
	C347.796082,378.409607 346.128632,378.413452 344.956543,378.415009 
	C329.142334,378.436127 313.327972,378.449188 297.514130,378.542572 
	C296.262817,378.549957 294.125366,378.269684 293.930725,379.587280 
	C293.463562,382.749420 290.657318,384.873535 290.015289,387.062561 
	C288.392090,392.597046 285.842194,397.371338 282.123444,401.377716 
	C279.608826,404.086823 280.529846,408.225739 277.809723,410.240631 
	C274.312073,412.831512 275.451996,417.538391 272.489319,420.267914 
	C271.955658,420.759583 272.451752,422.328003 273.362488,422.895721 
	C275.205109,424.044373 275.412445,425.742828 275.371277,427.644623 
	C275.346069,428.808289 275.353210,430.001740 276.828705,430.465698 
	C283.003815,432.407318 283.147552,439.016815 285.833344,443.338013 
	C289.157623,448.686462 290.765228,455.031708 295.858490,459.503387 
	C297.545624,460.984619 298.994293,461.659851 301.059387,461.656830 
	C314.377472,461.637482 327.695526,461.637695 341.013611,461.655090 
	C342.917633,461.657562 344.227203,460.892059 345.808716,459.691437 
	C350.572510,456.075012 353.599945,450.955322 355.019806,445.803894 
	C355.967468,442.365601 359.528961,440.907837 359.432556,437.846252 
	C359.334961,434.747101 361.230621,432.954895 362.981812,431.799408 
	C365.633667,430.049622 366.990570,428.253174 366.922760,425.097534 
	C366.906799,424.355072 368.060089,423.587433 368.982910,422.209320 
M367.347931,226.281494 
	C366.987671,229.191803 370.980835,230.073334 370.434479,233.255066 
	C369.988190,235.854172 371.840485,236.636078 374.192169,236.631119 
	C390.176361,236.597366 406.160645,236.586304 422.144867,236.603607 
	C424.086029,236.605713 425.014191,235.939087 425.582764,233.902390 
	C426.942322,229.032150 429.833557,224.899857 432.735962,220.816849 
	C433.858002,219.238403 435.658691,218.438492 437.016846,217.026077 
	C441.101868,212.777832 439.648407,205.662064 444.353699,202.526794 
	C447.849060,200.197723 448.805969,196.861496 447.221832,194.807785 
	C444.936676,191.845337 444.432220,187.911713 441.944519,185.559189 
	C438.086243,181.910538 435.471741,177.092072 433.488098,172.862671 
	C430.577698,166.657242 427.867798,160.934921 422.981415,155.919449 
	C420.992523,153.878006 419.460419,153.412552 417.230194,153.405487 
	C405.242035,153.367447 393.224609,153.881851 381.278137,153.176117 
	C375.656799,152.844025 372.058746,156.375763 371.087891,159.485260 
	C369.134705,165.740799 362.594086,168.515335 361.309357,174.849625 
	C360.631226,178.192978 358.199188,180.923492 356.894043,183.798523 
	C355.267548,187.381531 353.947540,190.518890 350.668579,192.827225 
	C348.698517,194.214111 348.600372,196.808044 350.387848,197.924316 
	C354.555145,200.526749 354.714447,205.137833 356.084686,208.846954 
	C357.436951,212.507446 358.921356,215.684723 361.469574,218.631958 
	C363.425171,220.893753 366.575134,222.183472 367.347931,226.281494 
M277.568420,259.877930 
	C273.327393,257.702789 273.815338,252.814911 271.883972,249.337006 
	C270.436096,246.729797 269.262115,245.415207 266.485718,245.414047 
	C251.175674,245.407639 235.865616,245.399872 220.555588,245.412689 
	C219.063370,245.413940 217.126358,245.295456 216.728409,247.040634 
	C215.234009,253.594086 210.563950,257.917297 206.591644,262.866974 
	C204.589676,265.361481 203.375259,268.771423 201.916946,271.641235 
	C200.156052,275.106506 198.646225,278.360565 195.749298,281.044098 
	C193.860550,282.793732 193.503326,286.744537 194.685699,287.392090 
	C198.835907,289.665100 197.654327,294.493744 200.549057,297.453217 
	C202.661194,299.612579 205.524017,301.696411 206.238831,305.794128 
	C206.635742,308.069397 207.294662,311.827515 209.141266,313.554504 
	C212.965714,317.131226 214.420898,322.315033 218.686050,325.714539 
	C220.718033,327.334076 222.121323,328.673004 224.713837,328.663391 
	C237.361191,328.616455 250.008728,328.626740 262.656189,328.601959 
	C264.793396,328.597778 266.184143,327.839050 268.027649,326.253418 
	C270.815552,323.855469 270.631775,320.004089 272.584198,318.370178 
	C276.438782,315.144562 279.032135,311.298096 280.609192,306.935852 
	C281.822784,303.579102 284.583771,301.070648 285.369446,297.928986 
	C286.308228,294.174988 288.223419,291.573425 290.983154,289.354584 
	C292.547211,288.097107 293.289642,285.651520 292.282715,285.135193 
	C288.780731,283.339417 289.629517,279.027527 287.632965,277.371155 
	C284.792450,275.014618 286.987671,271.117432 283.679688,269.241943 
	C280.466919,267.420441 278.573486,264.246857 277.568420,259.877930 
M208.097656,220.531052 
	C209.452744,222.924835 212.460236,223.651932 213.066498,227.311859 
	C213.459671,229.685455 216.517715,231.944702 216.851898,235.248108 
	C217.002319,236.735184 218.925293,236.610733 220.251282,236.611206 
	C236.076767,236.616745 251.902237,236.613312 267.727722,236.596603 
	C269.052368,236.595215 271.060333,236.665253 271.103760,235.217621 
	C271.204254,231.867188 273.472900,229.632706 274.615326,226.847565 
	C276.684998,221.801819 279.128540,216.947830 283.071381,213.063568 
	C283.734100,212.410675 285.018646,212.301254 285.287720,211.227783 
	C286.596985,206.004456 288.241211,201.021103 292.219635,197.032639 
	C293.148285,196.101654 293.054047,193.631638 291.526733,193.035599 
	C285.095428,190.525787 285.645660,183.443481 282.243713,178.900421 
	C278.897064,174.431244 278.349274,167.867432 273.013367,164.426208 
	C271.615753,163.524872 271.786285,162.231064 271.562897,160.947388 
	C270.905518,157.169357 266.430176,153.404587 262.578644,153.398849 
	C250.417953,153.380692 238.257141,153.368362 226.096619,153.413727 
	C224.137939,153.421036 221.312363,152.542282 220.407852,154.222580 
	C218.362717,158.021820 213.638092,159.762894 212.599777,163.773972 
	C211.609436,167.599747 206.636337,169.449738 207.951797,174.115509 
	C203.822220,174.976364 206.914215,179.984726 204.590393,180.872406 
	C197.607956,183.539673 199.223724,191.509781 194.775696,195.758881 
	C193.487030,196.989899 193.699921,200.203033 196.793274,201.957779 
	C198.967575,203.191193 201.194519,205.400497 201.356369,208.552368 
	C201.602844,213.352753 204.175110,216.906143 208.097656,220.531052 
M310.503723,103.625458 
	C319.666534,103.627533 328.996429,102.553902 337.943695,103.943703 
	C346.363617,105.251602 349.420288,99.898331 352.039795,94.825180 
	C354.541565,89.980072 355.022888,84.052887 359.727051,80.358955 
	C362.447021,78.223076 361.628204,73.633301 363.626068,72.440445 
	C367.551483,70.096710 365.810242,65.309860 369.035278,62.990921 
	C369.603271,62.582500 369.446442,60.149132 368.797272,59.244274 
	C366.254944,55.700558 365.162567,51.334564 361.428284,48.364494 
	C358.688721,46.185596 357.449829,42.091843 356.075500,38.986362 
	C353.365021,32.861534 350.927734,26.925352 345.854401,22.304934 
	C344.662811,21.219719 343.689667,20.387505 342.070038,20.399862 
	C328.080658,20.506599 314.091156,20.600859 300.101624,20.687695 
	C298.402679,20.698242 297.127258,21.623470 295.648651,22.267942 
	C289.122925,25.112261 289.349457,31.954123 286.663269,36.942310 
	C285.567017,38.977993 284.128113,41.023029 283.392242,42.897919 
	C281.793823,46.970417 279.606506,49.687691 276.325714,52.553391 
	C274.473663,54.171146 274.102966,58.547920 272.497742,61.492287 
	C272.076569,62.264793 272.273834,63.543564 273.343689,64.122391 
	C277.017395,66.109909 277.780975,70.796112 278.652802,73.509834 
	C280.616943,79.623779 286.054413,83.069977 287.968109,88.999611 
	C289.016052,92.246742 291.721283,95.784096 292.703827,98.643333 
	C294.294556,103.272423 296.256134,103.782501 300.011383,103.648407 
	C303.172699,103.535522 306.341217,103.625099 310.503723,103.625458 
z"/>
</svg>