<svg version="1.1" id="Layer_1" xmlns="http://www.w3.org/2000/svg" xmlns:xlink="http://www.w3.org/1999/xlink" x="0px" y="0px"
	 width="100%" viewBox="0 0 640 480" enable-background="new 0 0 640 480" xml:space="preserve">
<path fill="#000000" opacity="1.000000" stroke="none" 
	d="
M546.343323,270.000061 
	C546.344238,333.484497 546.346863,396.468903 546.343018,459.453308 
	C546.342590,466.355865 546.325317,466.378723 539.568115,466.378906 
	C393.937622,466.383484 248.307114,466.383698 102.676613,466.379272 
	C95.660484,466.379059 95.649269,466.355591 95.649193,459.200348 
	C95.647713,313.736359 95.648453,168.272354 95.651199,22.808348 
	C95.651337,15.674879 95.661751,15.649680 102.683670,15.649331 
	C248.314255,15.642091 393.944855,15.639844 539.575439,15.642356 
	C546.307617,15.642471 546.330322,15.667402 546.330994,22.560518 
	C546.339233,104.873703 546.340271,187.186874 546.343323,270.000061 
M370.863739,324.830475 
	C371.853821,324.779053 373.339783,324.477417 373.618073,325.399078 
	C374.842773,329.455353 378.042755,328.652161 380.924744,328.655182 
	C392.739746,328.667511 404.554840,328.671204 416.369659,328.621185 
	C418.160583,328.613617 420.745056,329.435699 421.578613,327.893188 
	C423.515564,324.308807 428.173584,322.972382 429.325562,319.514893 
	C432.024353,311.414856 435.711853,303.833618 441.355316,297.678589 
	C443.685974,295.136658 442.612000,291.999023 444.866119,289.970886 
	C448.863007,286.374725 448.703705,283.820190 444.697754,279.954346 
	C443.205658,278.514435 441.507446,276.796936 441.005676,274.912445 
	C439.383606,268.820587 435.919373,263.970642 431.697937,259.557129 
	C430.602051,258.411377 429.994232,257.258453 429.642700,255.729279 
	C428.830719,252.196915 424.731049,250.335495 424.658325,246.285934 
	C424.652832,245.979828 422.930847,245.455048 422.005432,245.452118 
	C406.030548,245.401443 390.055450,245.408493 374.080414,245.433105 
	C372.769531,245.435120 370.935516,245.353653 370.683838,246.884674 
	C369.697998,252.881699 366.148346,257.476532 363.100677,262.460999 
	C360.403839,266.871643 357.076019,270.837982 355.160858,275.957642 
	C354.116547,278.749329 352.552551,282.244507 350.089844,285.150421 
	C346.762177,289.076965 354.540375,290.310547 355.371490,293.983246 
	C356.681854,299.773682 357.507477,305.482269 362.926392,309.653290 
	C364.173309,310.613037 364.765747,314.211426 367.131561,315.905884 
	C370.240631,318.132690 371.173737,321.297668 369.360931,325.237549 
	C366.275604,323.785461 363.228424,322.684448 362.460541,318.430389 
	C361.885437,315.244110 359.970947,312.275177 358.725708,309.181610 
	C356.184784,302.869171 350.442230,298.411865 348.035919,291.756989 
	C347.205048,289.459167 344.927948,286.802734 341.119781,287.289154 
	C337.844574,287.707520 334.448669,287.626404 331.149933,287.309845 
	C326.405426,286.854492 325.226654,288.898407 325.265106,293.373749 
	C325.455353,315.509552 325.363831,337.647888 325.357941,359.785309 
	C325.353546,376.412323 325.343109,376.400696 342.138336,374.638489 
	C343.703369,374.474304 344.557251,373.645782 345.742523,372.634460 
	C349.152252,369.725098 347.821381,364.018646 352.575317,362.018677 
	C355.073151,360.967865 355.845795,358.627350 355.680603,355.906128 
	C355.489685,352.760529 357.311249,352.282227 360.198914,353.916351 
	C360.075378,356.314789 361.548615,359.918793 359.124207,360.818359 
	C353.189484,363.020325 354.489899,370.191803 349.740051,373.082245 
	C348.719330,373.703369 349.034485,376.284363 350.833618,377.337708 
	C351.805206,377.906586 353.038757,378.036316 353.233368,379.533600 
	C353.990265,385.356232 356.767578,390.437073 360.865051,394.254272 
	C363.450348,396.662689 362.214142,400.276062 364.461121,401.985840 
	C368.235565,404.857941 368.683960,409.269318 370.115479,413.064362 
	C371.042755,415.522614 371.659363,416.684570 374.302887,416.674500 
	C390.109528,416.614410 405.916504,416.642426 421.723358,416.631927 
	C423.434631,416.630798 424.968506,416.523773 425.562561,414.348206 
	C427.006927,409.058624 430.573486,404.808807 432.875122,399.931396 
	C433.660583,398.266968 436.338867,398.765839 436.613068,396.350311 
	C437.143066,391.681488 441.605835,388.693359 442.378906,384.289124 
	C443.250061,379.326416 448.388916,376.409149 448.844269,370.847748 
	C451.959778,370.506378 451.610748,374.986328 455.422485,374.838043 
	C468.735352,374.320251 482.080780,374.632111 495.413818,374.644806 
	C500.115906,374.649261 502.251160,370.689240 503.266235,367.610931 
	C504.111237,365.048431 505.365021,362.730804 507.063721,361.725677 
	C509.958466,360.012878 510.070740,357.745392 510.991119,355.073578 
	C512.034424,352.044891 512.710815,347.328735 514.951355,346.281830 
	C520.571472,343.655914 519.977722,337.254303 524.088867,333.764679 
	C525.571533,332.506226 526.383057,327.328522 522.205505,325.291565 
	C521.128479,324.766418 520.670654,323.966431 520.747437,322.939056 
	C521.042358,318.990509 518.260742,317.157410 515.548279,315.331177 
	C514.855408,314.864624 514.051270,314.637421 513.878906,313.700684 
	C512.834351,308.024567 510.212341,303.167877 506.478241,298.796417 
	C505.378296,297.508759 503.761871,296.684204 503.567200,294.431427 
	C503.178864,289.937042 499.900757,287.546143 495.771118,287.467346 
	C482.442902,287.213104 469.105835,287.461761 455.774445,287.313110 
	C451.929535,287.270264 449.472595,289.660797 448.706543,292.399719 
	C447.182007,297.850403 443.343170,301.892365 441.232300,306.899719 
	C440.444489,308.768585 437.633301,308.336273 437.249451,310.940125 
	C436.685181,314.768097 433.936462,317.900696 432.374268,321.327911 
	C431.033356,324.269592 431.887543,328.889343 427.571442,330.548615 
	C431.531036,332.615448 430.318573,335.880524 429.173798,339.210785 
	C425.812195,339.882141 424.337585,336.972443 423.102814,335.098724 
	C421.785431,333.099518 420.587158,332.376801 418.422852,332.380890 
	C405.156219,332.406006 391.889496,332.381744 378.622803,332.377441 
	C376.756897,332.376831 375.610138,333.612488 374.133423,334.483521 
	C370.001831,336.920563 371.106384,342.138580 367.595367,344.709259 
	C365.257751,346.420807 362.621033,348.121948 362.840027,351.859344 
	C362.917175,353.176025 361.232513,353.208649 359.802032,352.104462 
	C358.204651,347.118286 363.603943,344.032654 363.256805,339.386108 
	C370.117828,336.832825 369.676819,330.776093 370.863739,324.830475 
M281.123871,353.155334 
	C280.514008,352.974670 279.375244,352.803650 279.371765,352.611938 
	C279.286682,347.940796 275.928741,345.578888 272.760986,343.103119 
	C271.836792,342.380829 271.884003,341.406494 271.691986,340.443268 
	C270.738129,335.658417 266.819977,332.399506 261.977692,332.391205 
	C250.815338,332.372070 239.650803,332.506775 228.491653,332.316040 
	C223.941116,332.238312 220.375305,332.842651 216.883545,336.601227 
	C213.275833,340.484650 211.259018,345.155670 208.557907,349.414703 
	C205.810730,353.746338 205.694687,359.745544 201.147034,363.070801 
	C197.545578,365.704132 198.980133,371.224792 194.647537,373.394653 
	C193.907455,373.765320 193.970139,376.376373 195.289337,376.913422 
	C199.814926,378.755920 199.182144,383.666870 200.862137,386.908966 
	C203.021271,391.075745 205.153854,395.444763 207.803009,399.201477 
	C210.633911,403.215942 214.291550,407.572235 215.508926,411.567078 
	C217.216980,417.172089 220.027786,416.648499 223.784836,416.650391 
	C236.446625,416.656769 249.108948,416.724182 261.769928,416.622894 
	C266.299255,416.586670 272.372498,418.741455 272.166565,410.478729 
	C272.161072,410.258270 272.598297,410.019318 272.840179,409.801300 
	C275.568451,407.341949 277.001282,403.278839 277.918793,400.631165 
	C280.115234,394.292816 285.925964,390.572632 287.652191,384.270813 
	C288.509003,381.142792 289.114685,377.711578 292.395416,375.784363 
	C292.767548,375.565796 292.745911,373.612091 292.446899,373.476379 
	C288.241394,371.567383 289.642334,366.145966 286.198547,363.767273 
	C282.449341,361.177582 281.163879,357.489197 282.504303,353.497772 
	C285.856842,356.907867 287.440155,361.949768 292.271271,364.011444 
	C293.363922,364.477753 293.135590,365.667328 293.322327,366.622650 
	C294.495728,372.624634 296.887634,374.652161 302.762665,374.660309 
	C306.089386,374.664917 309.417633,374.585632 312.742401,374.663300 
	C315.469604,374.727051 316.660797,373.546082 316.657623,370.795837 
	C316.627106,344.348206 316.622284,317.900421 316.674774,291.452820 
	C316.680756,288.434937 315.384064,287.266083 312.457214,287.352173 
	C308.800903,287.459778 305.137207,287.458679 301.480194,287.366638 
	C296.523438,287.241852 293.988037,289.776581 293.338776,294.491058 
	C293.178375,295.656036 293.020782,296.574951 291.796875,297.338623 
	C286.279358,300.781464 286.069824,307.692596 282.292999,312.268799 
	C279.428467,315.739685 280.330139,320.923279 275.662506,323.855865 
	C270.463074,327.122589 270.878754,333.581696 275.933563,337.926392 
	C280.582062,341.921875 282.898956,346.758545 281.123871,353.155334 
M493.265320,194.652786 
	C496.018738,194.593872 498.204620,193.774811 500.805328,192.324677 
	C504.447174,190.294037 502.792877,187.009048 504.604309,184.820068 
	C507.143494,181.751633 510.641357,179.557220 511.390076,174.763321 
	C511.698578,172.788300 512.885254,168.548950 514.107666,168.049911 
	C519.774414,165.736496 519.433167,159.211334 523.587036,156.029327 
	C525.616760,154.474503 525.067566,148.111359 522.913940,146.575928 
	C521.963501,145.898315 520.647156,145.621933 520.778320,144.203644 
	C521.167908,139.993256 518.243286,138.099243 515.290955,136.308884 
	C514.307678,135.712540 513.868896,135.070053 513.721069,134.013260 
	C512.864136,127.889755 510.492035,122.504478 505.470551,118.693962 
	C504.041321,117.609406 503.806732,116.454887 503.617950,114.928375 
	C503.186462,111.439697 498.502686,107.407066 494.911011,107.395767 
	C482.748566,107.357513 470.570526,107.716789 458.431091,107.182465 
	C453.578979,106.968887 450.899597,109.158859 449.101562,112.635017 
	C447.818054,115.116447 445.312073,118.278229 445.268127,119.706703 
	C445.059418,126.491577 435.513275,128.063660 437.249451,135.350220 
	C437.301727,135.569595 436.982635,136.061295 436.743286,136.139252 
	C431.604675,137.812881 432.716309,143.283875 430.707520,146.795288 
	C429.629150,148.680252 429.014069,150.544327 426.510010,151.319656 
	C431.334839,153.911209 431.943604,158.726440 433.034393,162.480164 
	C434.392914,167.155045 436.678955,170.689575 439.918976,173.950851 
	C443.855438,177.913132 445.644379,183.230255 448.100586,188.010574 
	C450.055359,191.815002 451.621826,194.706131 456.334320,194.678360 
	C468.329834,194.607620 480.326019,194.653839 493.265320,194.652786 
M138.108978,117.124382 
	C135.830261,120.567963 131.141113,121.755806 130.528473,127.218651 
	C130.287506,129.367371 129.345810,134.236221 127.866020,134.884247 
	C122.266403,137.336411 122.393478,143.600159 118.484200,146.948624 
	C116.316246,148.805542 116.906380,154.979797 119.416512,156.587112 
	C120.526642,157.297943 121.373634,157.896133 121.258171,159.177124 
	C120.915062,162.983963 123.930771,164.532730 126.195717,166.507339 
	C126.896591,167.118378 128.037430,167.207764 128.190247,168.418900 
	C128.946625,174.413849 132.305695,179.133469 135.833893,183.731262 
	C136.801666,184.992416 138.109375,185.738007 138.416855,187.685989 
	C139.139542,192.264450 142.401947,194.557159 146.847794,194.600861 
	C159.845642,194.728653 172.846466,194.554581 185.844330,194.681839 
	C188.480042,194.707642 190.051544,193.734161 191.690018,191.798737 
	C194.039612,189.023254 196.182068,185.163025 196.930435,182.625305 
	C198.828140,176.190262 205.206711,172.878876 206.340454,166.432129 
	C207.036926,162.471909 210.684860,159.780273 211.372040,156.067093 
	C211.825394,153.617386 213.258438,152.719086 215.094223,151.570694 
	C210.451111,149.360153 210.369385,144.496536 208.302216,141.216110 
	C204.968307,135.925507 204.457535,128.862946 198.525818,124.913582 
	C198.170914,124.677292 197.922379,124.100342 197.851364,123.646400 
	C197.065201,118.621307 192.807922,115.384621 191.223419,110.868759 
	C190.051895,107.529823 187.945786,107.322220 185.099869,107.339523 
	C172.767746,107.414505 160.434845,107.346085 148.102280,107.364502 
	C142.686234,107.372589 138.845398,110.911880 138.108978,117.124382 
M206.078613,345.733887 
	C208.744705,340.417725 211.410797,335.101562 213.969116,330.000275 
	C210.661667,328.029022 209.963562,323.316956 208.133377,319.952850 
	C205.304123,314.752350 203.539124,308.945831 199.253021,304.574066 
	C198.374496,303.677979 198.067810,302.753357 197.626633,301.680389 
	C195.803070,297.245575 193.625519,292.987701 190.751434,289.096008 
	C189.695847,287.666656 188.409851,287.380615 186.868591,287.381042 
	C173.209442,287.384583 159.541870,287.132935 145.896973,287.576721 
	C142.437332,287.689240 138.738739,289.704742 138.330414,294.288696 
	C138.042343,297.522736 135.427475,299.186310 133.506195,301.221924 
	C132.772202,301.999542 131.679947,302.300659 131.379196,303.633484 
	C130.159134,309.040344 128.425552,314.480103 123.698112,317.660797 
	C120.673523,319.695740 122.639816,323.768677 120.272133,324.809692 
	C115.672699,326.832001 117.796822,330.384949 117.466690,333.364746 
	C117.190262,335.859772 121.086723,335.296509 120.932930,336.937653 
	C120.279930,343.906158 128.645050,345.310394 129.475937,351.965759 
	C130.035507,356.448029 132.398895,361.952362 137.747986,364.409485 
	C138.199448,364.616882 138.173187,365.928040 138.314590,366.735931 
	C139.057037,370.978058 143.213516,374.631134 147.452682,374.639618 
	C159.945908,374.664703 172.449432,374.357208 184.927597,374.791809 
	C190.139511,374.973328 191.890121,371.582855 193.379944,368.245667 
	C195.613358,363.242859 197.734619,357.963501 201.374527,354.140289 
	C203.791992,351.601074 204.367310,348.966461 206.078613,345.733887 
M200.984512,262.874756 
	C205.501816,259.348572 206.060745,252.858322 211.226318,249.501083 
	C212.431061,248.718079 212.392120,245.059418 214.982971,243.441467 
	C216.305450,242.615631 216.278549,239.582520 214.861588,238.426483 
	C210.891129,235.187180 210.186676,229.749695 205.882889,226.464203 
	C203.861206,224.920868 202.091721,221.045914 201.045746,218.175186 
	C198.725235,211.806427 195.984497,206.034012 190.929459,201.376251 
	C189.748001,200.287659 188.821609,199.398560 187.206161,199.399216 
	C172.042465,199.405426 156.878784,199.400024 141.715088,199.410736 
	C140.120422,199.411865 138.809113,199.748611 138.404831,201.686935 
	C137.226501,207.336456 134.992111,212.453140 130.324692,216.144897 
	C129.363190,216.905380 128.498749,217.603302 128.420609,218.886765 
	C128.138916,223.514343 123.863670,226.091537 122.632736,230.418884 
	C121.763954,233.473083 121.279533,237.336380 117.590385,239.192291 
	C117.066772,239.455704 117.090485,242.614395 117.617889,242.869781 
	C121.369255,244.686386 121.095917,248.727768 122.791008,251.616409 
	C124.633514,254.756271 126.524055,258.044678 127.878334,261.250000 
	C128.915009,263.703674 129.951019,266.588165 131.812851,267.492493 
	C136.540024,269.788605 136.410675,274.795166 137.815735,278.286621 
	C139.303223,281.982971 140.625641,282.716980 143.941193,282.694000 
	C157.771408,282.598145 171.602554,282.640076 185.433304,282.605713 
	C186.905472,282.602081 188.586090,283.064362 189.769470,281.936462 
	C195.095993,276.859436 199.427261,271.147614 200.984512,262.874756 
M522.838257,237.472672 
	C518.828003,236.541321 521.409485,232.363983 519.129456,230.025177 
	C516.880981,227.718674 515.493164,223.977859 514.142151,220.907211 
	C513.015442,218.346298 512.044556,215.379486 509.956696,214.233185 
	C505.467041,211.768204 505.538239,206.966309 504.046082,203.376953 
	C502.724701,200.198425 501.702820,199.323318 498.679779,199.342514 
	C486.350037,199.420792 474.017487,199.498398 461.690033,199.310440 
	C455.897583,199.222122 450.799164,199.257019 447.493896,205.548981 
	C446.521667,207.399826 445.046509,209.179840 443.950562,211.276718 
	C442.491974,214.067413 442.392853,218.325211 440.814606,219.465744 
	C436.707977,222.433395 436.382019,228.001083 432.010376,230.393890 
	C430.489655,231.226212 430.388916,232.772202 430.319672,234.313553 
	C430.269287,235.434418 430.418823,236.587418 429.085388,237.321487 
	C424.585480,239.798782 424.936462,242.393066 429.100342,244.878494 
	C429.936218,245.377426 430.377380,246.134033 430.211273,246.918671 
	C429.484375,250.352875 432.119354,252.443756 434.035004,253.844208 
	C437.755005,256.563690 438.824493,260.855408 440.778595,264.318512 
	C443.887177,269.827637 445.774658,275.936981 450.916779,280.214081 
	C451.972961,281.092651 452.280151,282.663788 454.178375,282.655945 
	C469.673920,282.591949 485.169769,282.610565 500.665527,282.589447 
	C502.145233,282.587433 503.171600,281.980804 503.535583,280.388947 
	C504.858398,274.603729 506.907806,269.213379 512.056580,265.638489 
	C512.937744,265.026703 513.504028,264.275269 513.563293,263.200806 
	C513.817810,258.587494 517.674561,255.723129 519.411987,251.774673 
	C520.409302,249.508072 519.258240,246.196732 522.162903,244.807022 
	C525.775696,243.078491 525.156189,240.579971 522.838257,237.472672 
M222.252869,328.600677 
	C235.573639,328.613708 248.904816,328.328674 262.209839,328.793152 
	C267.212036,328.967773 270.704163,325.048248 271.008087,322.830231 
	C271.927734,316.119629 279.287537,314.142395 280.305115,307.677155 
	C280.812561,304.453156 283.654968,301.332581 285.157043,298.277740 
	C286.876831,294.780182 288.199493,291.452332 291.390106,289.056396 
	C292.968262,287.871307 293.312225,285.465454 292.044922,284.706787 
	C289.242706,283.029266 289.565155,279.519043 288.068268,278.139984 
	C285.175781,275.475128 285.704803,271.744873 283.269440,268.824829 
	C278.303528,262.870544 273.508148,256.312042 271.677612,248.419815 
	C271.059662,245.755600 269.502167,245.399475 267.364288,245.399414 
	C251.712051,245.398941 236.059799,245.394089 220.407562,245.406265 
	C218.900024,245.407440 217.113678,245.365906 216.637802,247.144440 
	C214.987320,253.313065 210.833282,257.757965 206.956024,262.544556 
	C204.696350,265.334198 203.146759,268.998932 201.740005,272.248108 
	C200.345337,275.469330 198.853622,278.294373 196.315231,280.413940 
	C193.551102,282.721985 193.508972,287.159119 194.811905,287.847748 
	C199.081772,290.104340 197.676163,295.055878 200.738129,297.917419 
	C202.095856,299.186279 204.471390,300.004852 205.056198,301.919708 
	C206.604797,306.990479 209.684769,311.438629 211.511505,316.098450 
	C213.721069,321.734863 218.581970,324.087280 222.252869,328.600677 
M280.015228,77.335495 
	C283.661926,81.198776 286.818604,85.631050 288.601196,90.444321 
	C289.780487,93.628593 292.518646,96.162788 292.942200,98.851463 
	C293.658936,103.401337 295.773468,103.692436 299.290131,103.668556 
	C312.282227,103.580360 325.385376,102.621933 338.229187,104.007462 
	C346.710480,104.922379 349.547150,99.704948 352.093658,94.725677 
	C354.549103,89.924446 355.604889,84.302231 359.752808,80.485115 
	C362.297516,78.143333 361.638611,73.731331 363.696991,72.517982 
	C367.813965,70.091217 365.821472,65.071655 369.153473,62.654533 
	C369.652435,62.292557 369.525269,60.114445 368.936890,59.369644 
	C366.224915,55.936543 365.554230,51.331089 361.610168,48.460491 
	C358.618683,46.283207 357.608398,41.912479 356.057861,38.652946 
	C353.326233,32.910587 351.083527,27.216681 346.280182,22.741570 
	C344.682770,21.253311 343.374573,20.352943 341.207001,20.364986 
	C327.715057,20.439962 314.222687,20.428391 300.730438,20.450224 
	C298.894287,20.453194 297.468475,21.263529 295.799774,22.097883 
	C289.261017,25.367296 288.779327,32.120953 286.605530,37.622585 
	C285.093445,41.449421 282.351715,44.409817 280.854095,48.258572 
	C279.634918,51.391712 275.047974,52.613667 274.652618,57.370171 
	C274.485687,59.377903 270.582184,62.116379 273.425842,63.865437 
	C276.744202,65.906494 273.807861,69.944115 276.618927,71.016571 
	C279.618805,72.161049 279.131317,74.533958 280.015228,77.335495 
M355.756073,124.946983 
	C355.710297,123.391388 355.156799,122.363022 353.803070,121.254433 
	C351.299469,119.204201 348.700958,117.486702 348.070740,113.326843 
	C347.640717,110.488678 345.128174,107.016663 340.063446,107.219727 
	C327.432770,107.726120 314.768127,107.368660 302.117218,107.395866 
	C297.192200,107.406456 294.107513,110.140251 293.353333,115.107689 
	C293.159760,116.382584 293.533508,117.794632 291.802734,118.389473 
	C285.970215,120.394051 284.928101,126.584702 282.997162,130.870728 
	C280.197083,137.085953 278.444855,143.556366 272.219299,147.904343 
	C276.535767,150.449341 275.517273,155.454498 278.775482,158.799927 
	C280.728943,160.805664 281.774231,164.830460 284.714294,166.958832 
	C285.447235,167.489426 285.850128,168.084946 286.049255,168.930817 
	C287.462860,174.936310 290.470703,180.085709 294.767242,184.440094 
	C295.653259,185.338013 296.102600,186.132111 296.353394,187.327179 
	C297.295746,191.817841 300.314362,194.454346 304.731201,194.551559 
	C315.378754,194.785873 326.035736,194.629745 336.688446,194.560150 
	C338.792969,194.546402 340.415863,193.556183 342.325775,192.416199 
	C346.275482,190.058731 345.255768,185.405090 348.230743,182.600677 
	C349.639374,181.272858 352.322266,180.952637 352.759155,177.952515 
	C353.508179,172.809128 356.003082,168.426971 359.764648,164.493240 
	C364.285004,159.766052 366.165802,153.298630 369.133942,147.338333 
	C366.998962,145.497452 363.879486,144.100159 363.096680,141.879242 
	C361.111084,136.245956 359.626831,130.480637 355.756073,124.946983 
M354.502167,192.800720 
	C353.613220,193.467636 353.363251,194.432709 353.393982,195.453918 
	C353.514771,199.468460 354.343872,203.145370 355.620483,207.110062 
	C357.507629,212.970795 360.425110,217.777664 364.465210,221.655594 
	C367.749603,224.808182 368.841492,228.834930 369.941925,232.403687 
	C371.078583,236.089874 372.433868,236.712097 375.620789,236.691895 
	C389.267151,236.605347 402.914490,236.687592 416.561127,236.625259 
	C419.192596,236.613251 423.103058,237.799942 424.182495,235.940369 
	C425.950287,232.894897 428.448456,229.905670 429.295837,226.690857 
	C430.151917,223.443192 431.987335,221.576126 434.156067,219.786865 
	C435.353882,218.798599 436.103394,217.932495 436.752258,216.472412 
	C438.440857,212.672729 440.655670,209.109726 442.595184,205.417969 
	C444.482147,201.826218 450.595886,198.891815 447.128204,194.546036 
	C444.742188,191.555862 444.559998,187.686310 441.799713,185.276962 
	C437.836365,181.817627 435.527527,176.931824 433.331512,172.624100 
	C430.396118,166.865997 428.387604,161.131210 423.309692,156.414413 
	C420.894501,154.170975 419.132080,153.397522 416.403351,153.389816 
	C406.251495,153.361160 395.999542,154.253204 385.978455,153.108200 
	C377.638611,152.155319 374.325439,158.185654 371.072113,162.642914 
	C368.000427,166.851288 366.061066,172.313721 363.359528,177.138718 
	C360.535858,182.181885 356.574524,186.666077 354.502167,192.800720 
M214.297012,229.412857 
	C216.109955,229.952072 216.391281,231.399612 216.302460,232.970245 
	C216.139786,235.846817 217.613983,236.685120 220.275375,236.673859 
	C236.084686,236.606979 251.894363,236.635590 267.703918,236.613220 
	C269.007751,236.611374 270.771667,236.881699 271.193268,235.355331 
	C272.668121,230.015533 276.322235,225.456528 277.897339,220.641479 
	C279.849579,214.673447 285.619446,212.155823 287.192566,205.918793 
	C288.559845,200.498032 289.081268,188.895981 284.032135,185.731735 
	C278.816132,182.462906 278.002991,176.623871 275.182343,172.183105 
	C271.912079,167.034409 270.840881,160.672455 265.365997,156.498230 
	C263.580933,155.137192 262.570740,153.331024 259.920776,153.351227 
	C247.939499,153.442627 235.957062,153.378677 223.975098,153.394745 
	C222.667770,153.396484 221.105789,153.046158 220.193939,154.193466 
	C216.249542,159.156372 211.464630,163.761200 208.830505,169.363754 
	C206.447342,174.432495 205.147202,180.069077 200.917145,183.994980 
	C197.700027,186.980759 198.610046,191.903961 194.942078,194.799438 
	C193.624557,195.839493 193.092484,199.948059 195.870346,201.320801 
	C197.743317,202.246384 198.210526,204.054550 199.646713,204.980865 
	C202.524200,206.836792 201.164886,210.114548 202.495987,212.626175 
	C205.628052,218.536102 211.707092,222.355270 214.297012,229.412857 
M316.661041,390.535370 
	C316.660217,388.206573 316.486755,385.862000 316.697296,383.552490 
	C317.051636,379.665771 315.530182,378.113617 311.576324,378.325043 
	C306.931702,378.573303 302.264160,378.375488 297.606873,378.414032 
	C296.296783,378.424866 294.350739,378.190979 294.037445,379.528717 
	C293.320251,382.591217 290.849274,384.761292 289.921997,387.196564 
	C287.971283,392.319855 285.928345,397.163025 282.275116,401.234222 
	C280.104218,403.653534 280.185089,408.455261 278.571503,409.243683 
	C274.114990,411.421112 276.551758,416.901917 272.739746,418.925812 
	C272.267090,419.176758 272.190979,421.496704 272.753601,422.154755 
	C275.769379,425.682190 275.852661,431.218811 280.561493,433.527435 
	C281.526825,434.000732 282.310791,434.634338 282.220642,435.763977 
	C281.847473,440.439178 286.855743,442.513885 287.606750,447.047363 
	C287.891937,448.768829 288.247284,452.125793 289.876404,453.509216 
	C294.322388,457.284729 297.493164,463.791992 305.184570,461.701355 
	C306.423737,461.364502 307.833221,461.655457 309.163971,461.654236 
	C316.639618,461.647522 316.649536,461.647308 316.652100,454.401215 
	C316.659515,433.442017 316.658173,412.482849 316.661041,390.535370 
M325.349792,426.499908 
	C325.349335,433.485779 325.347748,440.471680 325.348663,447.457550 
	C325.350555,461.761139 325.351074,461.698853 339.859131,461.702240 
	C342.685791,461.702911 344.595001,460.802887 346.804535,458.940247 
	C350.989990,455.411896 353.482452,450.656372 354.980591,446.010284 
	C356.033386,442.745117 359.131683,440.877838 359.356262,438.064667 
	C359.605286,434.945007 361.210785,432.451172 363.100800,431.638916 
	C367.913879,429.570404 366.125061,424.074768 369.364410,421.344849 
	C370.079498,420.742157 369.820099,418.698669 368.541870,417.784637 
	C367.555573,417.079407 366.791168,416.404785 366.675720,415.065826 
	C366.268585,410.341980 363.288971,406.333038 360.572266,403.332306 
	C355.275208,397.481445 352.724487,390.091522 349.504669,383.545074 
	C346.861389,378.170959 344.330139,378.452454 340.395813,378.389191 
	C337.070099,378.335693 333.728912,378.572906 330.419800,378.333038 
	C326.422455,378.043213 325.251678,379.753265 325.295563,383.585571 
	C325.455597,397.555389 325.353546,411.528198 325.349792,426.499908 
M251.298309,131.809464 
	C250.311966,126.454506 246.511887,122.506905 244.342651,117.762711 
	C243.353149,115.598595 240.807236,114.905853 240.195511,113.273987 
	C238.295074,108.204109 234.797913,103.449547 233.533142,98.828041 
	C231.837097,92.630585 225.200684,90.677208 224.503677,83.955833 
	C224.031586,79.403374 219.869598,75.233551 217.260391,70.723999 
	C216.468140,72.801804 212.735153,71.666908 212.608475,74.246056 
	C212.293091,80.667114 205.634964,83.221420 204.132858,89.504402 
	C203.187073,93.460442 200.764511,98.685211 197.940735,102.022079 
	C194.010468,106.666489 194.702148,108.982086 197.971878,113.266289 
	C199.298126,115.004013 200.222794,118.763206 201.919632,119.610970 
	C206.647797,121.973251 206.739349,126.865639 207.885132,130.393280 
	C209.185303,134.396210 213.769119,136.798584 212.967606,141.591278 
	C212.918991,141.881821 214.354721,142.309677 214.951233,142.840576 
	C216.526703,144.242752 218.576004,145.262222 219.328339,147.385605 
	C219.941559,149.116364 221.142212,149.621933 222.778381,149.621017 
	C234.267105,149.614578 245.756851,149.694656 257.243896,149.553284 
	C260.565155,149.512436 261.896332,146.586319 259.723358,144.072403 
	C256.695923,140.569931 253.393478,137.328888 252.321243,132.593460 
	C252.293564,132.471146 252.065689,132.394165 251.298309,131.809464 
M410.860565,93.441170 
	C408.660645,96.168602 407.543701,99.701523 405.978088,102.626160 
	C403.456177,107.337273 401.375763,112.318726 398.384094,116.955521 
	C395.518433,121.397034 392.997467,126.087959 391.010132,131.198380 
	C389.360992,135.439163 387.444122,140.651108 382.876282,143.508835 
	C381.184479,144.567230 381.138092,146.325546 381.583893,147.976944 
	C382.101349,149.893585 383.866333,149.617844 385.329102,149.620514 
	C396.327972,149.640564 407.326935,149.638977 418.325806,149.618027 
	C419.632019,149.615540 421.618927,149.945465 421.943909,148.611298 
	C423.161102,143.614578 429.782349,142.971817 430.477539,136.855972 
	C430.735291,134.588699 431.489532,130.377243 433.702850,128.176376 
	C437.175842,124.722878 438.638824,119.909264 442.666382,116.669670 
	C444.569122,115.139183 444.289185,110.804451 447.342224,108.861816 
	C448.013184,108.434883 448.068909,106.110092 447.135742,105.661148 
	C443.939209,104.123322 444.458527,100.783569 443.060028,98.525551 
	C439.439697,92.680199 437.469086,85.781853 432.381561,80.892960 
	C429.119659,77.758423 430.104095,71.389389 424.799866,70.629539 
	C419.309204,77.548752 418.489380,87.027336 410.860565,93.441170 
M288.631927,100.743423 
	C285.904938,97.338356 286.527771,92.310013 282.333374,89.373360 
	C278.446564,86.652084 277.988739,81.224403 275.275970,77.296463 
	C273.696381,75.009338 270.941986,71.649986 271.371674,67.674858 
	C271.563721,65.898155 269.669556,65.430153 268.075806,65.429329 
	C255.265228,65.422707 242.454636,65.425621 229.644150,65.465103 
	C228.320862,65.469185 226.804794,65.558449 226.506607,67.272331 
	C226.217194,68.935867 226.278534,70.422409 228.100662,71.557297 
	C231.039993,73.387985 233.361481,75.822777 233.353653,79.659874 
	C233.350739,81.086395 233.585205,82.372131 235.336670,82.587807 
	C237.124023,82.807892 237.419434,84.092468 237.303528,85.492027 
	C237.115997,87.756126 238.572937,88.883446 239.832535,90.468552 
	C241.058563,92.011414 243.344788,92.142632 243.928070,93.766876 
	C245.766785,98.887100 248.584686,103.614777 250.631516,108.437332 
	C253.205521,114.502045 258.917786,118.401360 260.250549,124.890526 
	C260.984833,128.465775 264.031555,131.092590 264.943237,134.170975 
	C265.991028,137.708969 268.372528,139.682831 269.822052,142.452011 
	C272.245300,141.816010 271.263428,139.249741 273.354279,138.300674 
	C278.886322,135.789627 279.550385,129.541718 281.475067,124.832863 
	C283.563477,119.723320 288.128876,116.706497 290.205536,111.348969 
	C291.686279,107.528809 293.827942,106.252899 289.466370,103.793526 
	C288.943054,103.498444 288.914886,102.325172 288.631927,100.743423 
M409.304443,76.231194 
	C411.800537,75.582863 411.144135,72.067635 413.903046,71.400894 
	C415.907593,70.916451 415.786804,68.840675 415.441467,67.180725 
	C415.027588,65.191246 413.291565,65.399391 411.822083,65.398209 
	C399.342651,65.388168 386.863129,65.387566 374.383850,65.436928 
	C372.943939,65.442619 370.601288,65.320343 370.703705,67.068657 
	C370.901245,70.439941 368.594666,72.440315 367.365936,74.997139 
	C365.434906,79.015228 363.468964,83.053200 361.084534,86.807594 
	C357.978485,91.698372 355.754425,97.119614 352.857147,101.923386 
	C350.029266,106.612152 349.313354,108.599701 352.899414,113.108879 
	C354.493042,115.112747 355.807098,118.259758 357.759003,120.516594 
	C358.604370,121.493996 359.716187,122.117508 360.107666,123.544014 
	C362.162598,131.032013 366.232758,137.263412 372.234985,142.417252 
	C373.682770,140.386856 376.088043,138.485931 376.371429,136.308838 
	C376.955475,131.821594 380.596771,129.127609 382.104828,125.143242 
	C382.993469,122.795563 382.489990,119.159332 386.236084,116.936432 
	C390.588989,114.353424 391.637390,108.162186 394.366821,103.685799 
	C396.912384,99.510902 397.011658,93.774910 401.776093,90.876778 
	C404.830963,89.018578 403.592743,84.613129 405.543121,83.472023 
	C408.544220,81.716248 408.580231,79.493950 409.304443,76.231194 
M297.371796,209.378098 
	C295.847382,209.404709 295.868561,207.724945 294.954742,207.167313 
	C293.077667,206.021866 289.888794,205.996994 289.886383,207.840546 
	C289.878571,213.828064 284.537201,216.306442 282.285339,220.755890 
	C280.734680,223.819870 280.467957,228.324554 278.294037,229.765732 
	C274.231140,232.459198 276.121185,237.664429 272.474152,240.065369 
	C272.035126,240.354385 272.128479,242.135406 272.543152,242.927490 
	C275.355438,248.299393 278.558411,253.477951 281.162781,258.944031 
	C283.360352,263.556305 288.090118,266.642853 289.195160,271.637054 
	C290.052856,275.513428 294.471283,277.289337 294.210999,281.665405 
	C294.157593,282.563538 296.168091,282.584259 297.326080,282.591248 
	C302.486267,282.622437 307.647522,282.573090 312.806641,282.658997 
	C315.583740,282.705200 316.721405,281.433716 316.656860,278.726227 
	C316.532745,273.521942 312.054443,269.338196 313.189362,263.827789 
	C313.244751,263.558685 312.606628,262.890411 312.220428,262.824585 
	C304.622406,261.529053 300.411591,256.972687 299.077423,249.490112 
	C298.995544,249.030685 298.042419,248.753891 297.540009,248.337418 
	C295.367096,246.536179 294.400818,235.350662 296.750397,234.209961 
	C301.032288,232.131134 298.849854,226.790146 302.422394,224.515396 
	C303.084656,224.093689 302.941681,221.915009 301.996796,221.312943 
	C298.952240,219.373047 299.779144,216.451385 299.611267,213.723526 
	C299.515961,212.175110 300.251160,210.253494 297.371796,209.378098 
M343.071259,249.499771 
	C341.520935,256.282684 338.074158,261.243835 330.694977,262.489532 
	C328.170074,262.915741 328.392609,264.947266 328.346924,266.771942 
	C328.277954,269.529388 328.256500,271.926422 326.126282,274.486633 
	C323.013153,278.228180 325.683533,282.575928 330.593750,282.625641 
	C335.254272,282.672821 339.915710,282.636749 344.576691,282.618591 
	C345.896942,282.613434 347.853180,282.803040 348.017120,281.348572 
	C348.389343,278.045868 350.756348,275.982422 352.041412,273.312134 
	C354.416412,268.376801 355.711273,262.925781 360.599792,259.548737 
	C362.008636,258.575500 362.740326,257.083801 362.683289,255.239777 
	C362.648529,254.116501 362.453003,252.673080 363.689362,252.101242 
	C367.997070,250.108932 366.455658,244.859314 369.416779,241.997269 
	C370.263367,241.179031 369.875519,238.692032 368.210327,237.593796 
	C367.108154,236.866882 367.082428,235.713425 366.595886,234.701416 
	C364.666351,230.688049 363.107819,226.227173 360.213165,223.010971 
	C356.032196,218.365692 353.463409,213.215729 351.927643,207.345901 
	C346.312500,206.500595 342.521637,209.563721 342.318848,215.054153 
	C342.258575,216.684875 342.584839,218.349503 341.677399,219.914139 
	C339.683014,223.353073 341.271759,230.935486 344.480804,233.639252 
	C347.600769,236.267944 347.065063,246.354691 343.071259,249.499771 
M330.770447,212.039017 
	C332.098633,209.170349 333.946655,206.794159 336.952484,205.515396 
	C338.709534,204.767899 338.684174,203.255310 338.562164,201.719254 
	C338.426147,200.007217 337.217377,199.495743 335.778870,199.489929 
	C325.953552,199.450150 316.128021,199.440887 306.302643,199.456436 
	C304.829926,199.458771 303.670074,200.107849 303.501740,201.722336 
	C303.345642,203.219345 303.177551,204.930115 305.118073,205.416565 
	C307.794159,206.087433 308.681427,208.573792 310.242493,210.301605 
	C312.903320,213.246567 315.509033,215.564865 319.904510,215.761902 
	C323.956482,215.943542 327.166351,214.683121 330.770447,212.039017 
z"/>
<path fill="#000000" opacity="1.000000" stroke="none" 
	d="
M448.059021,370.513733 
	C445.273285,371.767609 443.721405,370.950623 443.703247,368.015869 
	C443.692169,366.221771 442.871613,365.096741 441.512299,363.889893 
	C438.982361,361.643616 436.781738,359.512238 436.013245,355.449738 
	C435.555786,353.031494 433.373657,349.612488 431.526428,347.169373 
	C429.630981,344.662537 429.745483,342.455750 429.924011,339.483765 
	C431.049011,338.819183 432.762299,338.692200 432.676849,339.531555 
	C432.222046,343.999451 437.121979,345.886322 437.371765,349.906738 
	C437.465912,351.421661 438.915253,351.875671 439.659729,352.828796 
	C443.672058,357.965454 447.941650,363.068695 448.059021,370.513733 
z"/>
</svg>