<svg version="1.1" id="Layer_1" xmlns="http://www.w3.org/2000/svg" xmlns:xlink="http://www.w3.org/1999/xlink" x="0px" y="0px"
	 width="100%" viewBox="0 0 640 480" enable-background="new 0 0 640 480" xml:space="preserve">
<path fill="#000000" opacity="1.000000" stroke="none" 
	d="
M141.068634,195.409363 
	C136.059265,191.423950 134.006241,185.369934 131.715683,180.443390 
	C128.379089,173.266968 121.920815,168.170593 119.929665,159.998611 
	C119.120506,156.677673 116.166336,153.537338 116.670860,149.420776 
	C116.809402,148.290329 116.425491,146.873291 117.539970,146.191620 
	C121.865486,143.545944 121.392555,138.425568 123.561890,134.672424 
	C124.173340,133.614578 124.310135,132.477158 125.373360,131.431076 
	C127.839867,129.004318 129.268219,125.301865 131.188858,122.990242 
	C134.540741,118.956009 135.073685,113.515358 139.925522,109.901268 
	C143.950073,106.903427 147.317917,106.714340 151.336044,106.681412 
	C163.666779,106.580376 175.999298,106.585983 188.330124,106.680313 
	C191.562866,106.705048 194.038147,106.328331 193.728394,102.225365 
	C193.633041,100.962143 194.395142,100.322151 195.505646,99.583847 
	C198.201477,97.791573 199.972122,95.548943 201.069855,92.048508 
	C202.000092,89.082199 204.290955,86.280067 205.664246,83.106697 
	C207.728088,78.337685 209.888611,73.291428 214.984283,70.567711 
	C215.469208,70.308517 215.486984,69.063324 215.610672,68.258827 
	C216.328323,63.591473 219.084518,61.597672 223.737534,61.621071 
	C237.735168,61.691475 251.733398,61.641304 265.731384,61.650791 
	C268.390717,61.652596 270.737549,61.892956 272.166779,58.503658 
	C274.056763,54.021801 277.884277,50.451366 278.802124,45.426262 
	C279.013184,44.270905 279.893219,43.847363 280.678802,43.259052 
	C285.519012,39.634266 286.614655,33.977329 289.035461,28.920002 
	C290.430695,26.005316 291.999298,22.722570 294.091064,20.271816 
	C295.205811,18.965736 298.813904,19.674833 301.297180,19.668386 
	C315.628326,19.631180 329.959747,19.678736 344.290863,19.630707 
	C347.214966,19.620907 348.918091,19.942944 349.625336,23.696445 
	C350.234222,26.928001 353.154358,29.558699 354.369446,33.059669 
	C355.857330,37.346661 359.780457,40.745361 362.046112,44.455864 
	C363.970459,47.607323 366.903290,51.001301 367.739105,55.408882 
	C368.328064,58.514748 370.924408,61.842373 375.780273,61.745007 
	C389.772583,61.464432 403.774261,61.632851 417.772186,61.662346 
	C423.308197,61.674011 425.312683,63.325863 426.309814,68.778030 
	C426.573792,70.221428 427.323578,70.866913 428.410065,71.788086 
	C430.784851,73.801506 432.305481,76.406479 433.677216,79.442177 
	C435.272675,82.972946 436.525696,87.163223 439.858002,89.820595 
	C442.436707,91.876961 440.564880,96.075684 444.223541,97.927368 
	C446.541931,99.100723 448.944305,100.955383 448.654999,104.733414 
	C448.469147,107.160492 451.359711,106.596817 453.066162,106.603745 
	C466.897278,106.659912 480.728699,106.632874 494.559998,106.655502 
	C499.531128,106.663643 506.007996,112.729172 507.507477,117.483658 
	C508.628845,121.039253 510.705872,124.735428 513.055054,127.364151 
	C516.498718,131.217651 519.413574,135.699631 520.637512,140.032120 
	C521.941833,144.648926 527.628174,147.748779 525.378540,153.484879 
	C524.977966,154.506088 525.606079,156.261368 524.536987,156.709229 
	C519.844238,158.675156 521.202637,163.982925 518.606506,167.208771 
	C517.497864,168.586319 517.524658,170.640488 515.373962,172.029678 
	C513.329468,173.350281 512.369446,176.640686 510.952606,178.562454 
	C507.660156,183.028183 507.345673,189.407455 502.122955,192.446884 
	C500.031433,193.664078 499.646851,196.043182 500.703033,197.079987 
	C504.727264,201.030472 506.323273,205.955017 507.595764,211.141953 
	C507.876617,212.286804 509.150726,212.252350 509.841461,212.840897 
	C512.012146,214.690430 513.263428,217.155472 514.714722,219.625824 
	C517.434326,224.255020 518.783081,229.857254 523.028748,233.538025 
	C525.443420,235.631409 526.624268,246.052872 524.243958,247.930832 
	C521.096130,250.414352 520.043152,254.416992 517.839172,256.979675 
	C514.386475,260.994324 514.623169,267.138184 508.893280,269.997101 
	C506.335541,271.273254 505.636261,276.519867 504.396423,280.070282 
	C503.902344,281.485138 503.817810,282.628998 502.188629,283.534790 
	C499.290283,285.146210 499.525848,287.598938 502.056091,289.439148 
	C505.077972,291.636871 506.551636,294.312439 507.696442,297.980591 
	C508.671356,301.104401 510.584656,304.817780 512.774170,307.047943 
	C517.330200,311.688629 519.154785,317.306244 522.032593,322.664093 
	C523.948303,326.230682 525.374146,329.201630 525.318176,333.062622 
	C525.306396,333.878845 525.387451,335.109039 524.921143,335.442017 
	C520.395813,338.673248 519.769531,343.839874 518.247559,348.544800 
	C517.887085,349.659271 517.019958,349.897186 516.269287,350.501526 
	C513.770325,352.513306 510.744934,354.266815 511.281647,358.319183 
	C511.461823,359.679291 511.084198,360.914368 509.410065,361.398926 
	C508.703857,361.603333 507.556488,362.477631 507.628510,362.850739 
	C508.896576,369.418579 501.621948,370.273041 499.695740,374.732788 
	C499.120911,376.063660 496.925964,375.365662 495.470428,375.369446 
	C481.805817,375.404999 468.141083,375.409698 454.476440,375.387329 
	C451.049866,375.381744 447.935852,375.607117 448.300415,380.324463 
	C448.386627,381.440033 447.629456,381.913879 446.685089,382.505341 
	C443.761444,384.336365 440.985535,386.255585 441.195709,390.492706 
	C441.330475,393.209198 438.262421,394.521729 436.924011,396.497559 
	C433.721924,401.224823 433.453522,407.785583 428.040436,411.062286 
	C425.194580,412.784943 427.044403,416.881073 423.832062,418.947876 
	C422.276428,419.948853 421.148376,420.954712 419.271729,420.828613 
	C404.956146,419.866699 390.622223,420.629791 376.298737,420.384552 
	C373.565643,420.337738 371.124939,420.648651 369.756378,423.739105 
	C367.832062,428.084503 364.066071,431.513916 363.258820,436.441284 
	C363.073639,437.571411 362.263550,438.021149 361.518585,438.690399 
	C357.116730,442.644958 354.862030,447.746735 353.073029,453.329987 
	C352.174164,456.135132 348.117859,457.615265 349.208252,461.944733 
	C330.412720,461.944733 312.015747,461.944733 293.616241,461.944733 
	C291.981506,456.702759 287.170258,452.590637 286.675964,447.765015 
	C285.986816,441.037781 277.928894,439.823395 277.735626,432.931854 
	C277.693207,431.417816 275.293915,427.889038 273.879639,425.350677 
	C272.085510,422.130585 269.484711,420.017487 264.812256,420.190979 
	C251.166275,420.697632 237.489258,420.329681 223.824936,420.402252 
	C219.198700,420.426819 216.314453,418.488556 215.637497,413.822815 
	C215.401062,412.193298 214.647400,411.294128 213.324753,410.299896 
	C208.513443,406.683044 206.574905,401.282349 204.518997,395.849030 
	C203.111282,392.128723 200.896927,388.655243 198.667664,385.322601 
	C196.865921,382.629089 193.272949,381.453400 192.956711,377.322968 
	C192.766876,374.843353 189.813507,375.420959 187.898987,375.414520 
	C174.401062,375.369049 160.902939,375.396729 147.404907,375.376892 
	C142.057190,375.369019 136.878601,369.433563 134.310501,364.858551 
	C131.934052,360.624908 131.854538,354.719299 127.100029,352.149170 
	C123.461830,350.182434 122.961136,346.399109 122.116333,343.573212 
	C120.669716,338.734161 116.161613,335.439545 116.445473,329.664398 
	C116.675705,324.980347 120.373291,322.484222 121.566170,318.378815 
	C122.776199,314.214417 126.146866,310.452179 129.180161,306.795074 
	C131.322556,304.212067 134.048691,300.428497 134.829559,296.204742 
	C135.333176,293.480621 137.258713,291.035156 139.829285,289.524475 
	C141.433121,288.581940 142.235718,286.670593 141.118896,285.866364 
	C137.727768,283.424316 137.513672,279.473999 136.108246,276.244537 
	C133.174957,269.504211 126.789436,265.029907 124.332199,258.409790 
	C122.675293,253.945892 120.913803,250.372620 117.231758,247.349258 
	C115.124825,245.619217 117.307480,235.519836 119.104530,233.257324 
	C120.951088,230.932465 122.868660,228.717834 123.917213,225.552063 
	C125.019203,222.224945 126.830299,218.330185 129.120651,215.993835 
	C133.632507,211.391357 136.400620,206.326218 137.654434,200.258728 
	C138.111572,198.046616 142.290512,198.986038 141.068634,195.409363 
z"/>
</svg>