<?xml version="1.0" encoding="UTF-8" standalone="no"?>
<!-- Created with Inkscape (http://www.inkscape.org/) -->

<svg
   version="1.1"
   id="svg1"
   width="432"
   height="432"
   viewBox="0 0 432 432"
   sodipodi:docname="binary_r_luvoir_b_nogap.png"
   xmlns:inkscape="http://www.inkscape.org/namespaces/inkscape"
   xmlns:sodipodi="http://sodipodi.sourceforge.net/DTD/sodipodi-0.dtd"
   xmlns="http://www.w3.org/2000/svg"
   xmlns:svg="http://www.w3.org/2000/svg">
  <defs
     id="defs1" />
  <sodipodi:namedview
     id="namedview1"
     pagecolor="#ffffff"
     bordercolor="#000000"
     borderopacity="0.25"
     inkscape:showpageshadow="2"
     inkscape:pageopacity="0.0"
     inkscape:pagecheckerboard="0"
     inkscape:deskcolor="#d1d1d1" />
  <g
     inkscape:groupmode="layer"
     inkscape:label="Image"
     id="g1"
     transform="translate(-91.200005,-14.4)">
    <path
       style="fill:#000000"
       d="M 91.200004,230.39999 V 14.4 H 307.20001 523.20002 v 215.99999 216 H 307.20001 91.200004 Z m 193.790796,194.17837 7.32921,-12.70162 14.88,-0.0103 14.88,-0.0103 7.33577,12.71193 7.33576,12.71194 15.27698,0.26288 15.27699,0.26288 7.47339,-12.98288 7.47339,-12.98288 15.03386,-0.0184 15.03387,-0.0184 7.32827,-12.70163 7.32827,-12.70162 15.22194,-0.48 15.22195,-0.48 6.95318,-12 c 3.82425,-6.6 6.96066,-12.57512 6.96979,-13.27804 0.009,-0.70292 -3.21875,-6.84378 -7.17306,-13.64635 l -7.18966,-12.36832 7.45941,-12.75364 7.45941,-12.75365 15.18207,-0.48 15.18207,-0.48 7.10818,-12.22032 c 3.9095,-6.72118 7.10818,-12.63442 7.10818,-13.14053 0,-0.50612 -3.26683,-6.55193 -7.25962,-13.43515 l -7.25962,-12.51494 7.25962,-12.48867 c 3.99279,-6.86877 7.25962,-12.93494 7.25962,-13.48039 0,-0.54544 -3.25504,-6.59134 -7.23343,-13.43532 l -7.23342,-12.44361 7.23342,-12.58816 c 3.97839,-6.92349 7.23343,-12.98958 7.23343,-13.48021 0,-0.49062 -3.19868,-6.39119 -7.10818,-13.11237 l -7.10818,-12.22032 -15.18207,-0.48 -15.18207,-0.48 -7.45941,-12.75365 -7.45941,-12.75364 7.18966,-12.36832 c 3.95431,-6.80258 7.18219,-12.94344 7.17306,-13.64636 -0.009,-0.702917 -3.14554,-6.678032 -6.96979,-13.278032 l -6.95318,-12 -15.22195,-0.48 -15.22194,-0.48 -7.32827,-12.701624 -7.32827,-12.701624 -15.03387,-0.01838 -15.03386,-0.01837 -7.47339,-12.982883 -7.47339,-12.982882 -15.27699,0.262883 -15.27698,0.262882 -7.33576,12.711937 -7.33577,12.711936 -14.88,-0.01031 -14.88,-0.01031 -7.32921,-12.701624 -7.32921,-12.701625 -15.28354,-0.262882 -15.28353,-0.262883 -7.4734,12.982882 -7.47339,12.982883 -15.03386,0.01837 -15.03386,0.01838 -7.32827,12.701624 -7.32827,12.701624 -15.22195,0.48 -15.22195,0.48 -6.95318,12 c -3.82425,6.6 -6.96065,12.575115 -6.96978,13.278028 -0.009,0.70292 3.21874,6.84378 7.17306,13.64636 l 7.18966,12.36832 -7.45941,12.75364 -7.45942,12.75365 -15.18207,0.48 -15.18207,0.48 -7.10818,12.22032 c -3.9095,6.72118 -7.108176,12.63442 -7.108176,13.14053 0,0.50611 3.261426,6.54262 7.247616,13.41445 l 7.24762,12.49424 -7.24762,12.61286 c -3.98619,6.93707 -7.247616,12.96599 -7.247616,13.39759 0,0.43161 3.261426,6.46053 7.247616,13.3976 l 7.24762,12.61285 -7.24762,12.49425 c -3.98619,6.87183 -7.247616,12.90833 -7.247616,13.41445 0,0.50611 3.198676,6.41935 7.108176,13.14053 l 7.10818,12.22032 15.18207,0.48 15.18207,0.48 7.45942,12.75365 7.45941,12.75364 -7.18966,12.36832 c -3.95432,6.80257 -7.18219,12.94343 -7.17306,13.64635 0.009,0.70292 3.14553,6.67804 6.96978,13.27804 l 6.95318,12 15.22195,0.48 15.22195,0.48 7.32827,12.70162 7.32827,12.70163 15.03386,0.0184 15.03386,0.0184 7.47339,12.98288 7.4734,12.98288 15.28353,-0.26288 15.28354,-0.26288 z"
       id="path1" />
  </g>
</svg>
