<?xml version="1.0" encoding="UTF-8" standalone="no"?>
<!-- Created with Inkscape (http://www.inkscape.org/) -->

<svg
   version="1.1"
   id="svg1"
   width="432"
   height="432"
   viewBox="0 0 432 432"
   sodipodi:docname="binary_r_luvoir_b_gap.png"
   xmlns:inkscape="http://www.inkscape.org/namespaces/inkscape"
   xmlns:sodipodi="http://sodipodi.sourceforge.net/DTD/sodipodi-0.dtd"
   xmlns="http://www.w3.org/2000/svg"
   xmlns:svg="http://www.w3.org/2000/svg">
  <defs
     id="defs1" />
  <sodipodi:namedview
     id="namedview1"
     pagecolor="#ffffff"
     bordercolor="#000000"
     borderopacity="0.25"
     inkscape:showpageshadow="2"
     inkscape:pageopacity="0.0"
     inkscape:pagecheckerboard="0"
     inkscape:deskcolor="#d1d1d1" />
  <g
     inkscape:groupmode="layer"
     inkscape:label="Image"
     id="g1"
     transform="translate(-91.200005,-14.4)">
    <path
       style="fill:#000000"
       d="M 91.200004,230.39999 V 14.4 H 307.20001 523.20002 v 215.99999 216 H 307.20001 91.200004 Z m 192.894856,194.3818 c 3.80541,-6.61002 6.78082,-12.58797 6.61204,-13.28434 -0.16879,-0.69637 -3.33089,-6.52809 -7.02689,-12.95937 l -6.72,-11.69324 -14.83446,0.25757 -14.83447,0.25758 -7.0655,12.31109 -7.06551,12.31109 7.01997,12.38071 7.01997,12.38072 14.98796,0.0282 14.98796,0.0282 z m 90.15165,-0.46525 7.04649,-12.42706 -7.10812,-12.26474 -7.10812,-12.26475 -14.81837,-0.25758 -14.81838,-0.25757 -6.72,11.69324 c -3.696,6.43128 -6.852,12.23132 -7.01333,12.88899 -0.16133,0.65766 2.80682,6.63561 6.59588,13.28434 l 6.88922,12.08858 15.00411,-0.0282 15.00412,-0.0282 z m -134.79667,-26.05115 7.0645,-12.13461 -7.23522,-12.60907 -7.23522,-12.60907 -14.85736,0.26367 -14.85736,0.26368 -7.1035,12.35865 -7.10349,12.35865 5.8964,10.20135 c 3.24302,5.61074 6.50862,11.18423 7.25689,12.38553 1.33274,2.13965 1.66379,2.1788 16.23518,1.92 l 14.87469,-0.26418 z m 89.40931,0.92163 c 3.66348,-6.43113 6.80828,-12.05739 6.98847,-12.5028 0.18018,-0.44542 -2.84382,-6.40289 -6.72,-13.23884 l -7.04761,-12.429 h -14.88 -14.88 l -7.0476,12.429 c -3.87618,6.83595 -6.90018,12.79342 -6.72,13.23884 0.18018,0.44541 3.32499,6.07167 6.98846,12.5028 l 6.66086,11.69297 h 14.99828 14.99829 z m 90.37041,-0.92184 7.0328,-12.13481 -7.09576,-12.34519 -7.09575,-12.34519 -14.86602,-0.26372 -14.86602,-0.26372 -6.84538,12.01168 c -3.76496,6.60642 -6.95519,12.34985 -7.0894,12.76317 -0.13421,0.41333 2.92998,6.2615 6.8093,12.99595 l 7.05332,12.24445 14.96506,-0.26391 14.96506,-0.2639 z m -224.69913,-25.94598 7.0691,-12.16078 -7.29805,-12.55922 -7.29805,-12.55921 h -14.66434 -14.66434 l -6.76701,11.76 c -3.72186,6.468 -6.90668,12.20885 -7.07738,12.75743 -0.17069,0.54859 2.85325,6.4994 6.71988,13.22402 l 7.03023,12.22659 14.94043,-0.26402 14.94043,-0.26402 z m 89.56703,0.55221 c 3.78907,-6.64872 6.75722,-12.61086 6.59588,-13.24919 -0.16133,-0.63834 -3.29667,-6.441 -6.96743,-12.89481 l -6.6741,-11.7342 -14.86428,0.26339 -14.86427,0.26339 -7.10812,12.26475 -7.10811,12.26474 7.04649,12.42706 7.04649,12.42706 15.00412,0.0282 15.00412,0.0282 z m 90.14905,-0.39487 7.04649,-12.42706 -7.10812,-12.26474 -7.10812,-12.26475 -14.86427,-0.26339 -14.86427,-0.26339 -6.6741,11.7342 c -3.67076,6.45381 -6.80611,12.25647 -6.96744,12.89481 -0.16133,0.63833 2.80682,6.60047 6.59588,13.24919 l 6.88922,12.08858 15.00411,-0.0282 15.00412,-0.0282 z m 89.885,-0.13855 7.05286,-12.14199 -7.21994,-12.57801 -7.21994,-12.578 h -14.67395 -14.67395 l -7.30283,12.56744 -7.30283,12.56744 5.40656,9.27256 c 2.9736,5.09991 6.25753,10.68732 7.29761,12.41646 l 1.89106,3.14391 14.84624,-0.26391 14.84625,-0.2639 z m -224.68167,-25.9126 7.0645,-12.1346 -7.23522,-12.60908 -7.23522,-12.60907 -14.83288,0.26368 -14.83289,0.26367 -7.12942,12.25531 -7.12941,12.25531 5.88974,10.30469 c 3.23936,5.66758 6.50561,11.28757 7.25833,12.48887 1.3405,2.13936 1.67391,2.17877 16.24329,1.92 l 14.87469,-0.26418 z m 89.35017,0.94905 c 3.696,-6.41496 6.87004,-12.04861 7.05341,-12.51922 0.18337,-0.47061 -2.84063,-6.44416 -6.72,-13.27455 l -7.05341,-12.4189 h -14.88 -14.88 l -7.0534,12.4189 c -3.87937,6.83039 -6.90337,12.80394 -6.72,13.27455 0.18337,0.47061 3.3574,6.10426 7.0534,12.51922 l 6.72,11.66358 h 14.88 14.88 z m 90.4498,-1.04777 7.02087,-12.23333 -7.12439,-12.24667 -7.1244,-12.24668 -14.82529,-0.26364 -14.82529,-0.26363 -6.78807,11.79091 c -3.73344,6.485 -6.93098,12.22839 -7.10565,12.76309 -0.17467,0.5347 2.85642,6.48218 6.73574,13.21663 l 7.05332,12.24445 14.98115,-0.26391 14.98114,-0.2639 z m -224.74955,-25.85984 7.1083,-12.17315 -7.27813,-12.54685 -7.27812,-12.54684 h -14.7342 -14.73419 l -6.71864,11.76 c -3.69526,6.468 -6.85964,12.20076 -7.03196,12.73946 -0.17232,0.5387 2.86068,6.48946 6.74,13.2239 l 7.05332,12.24445 14.88266,-0.26391 14.88265,-0.2639 z m 89.47581,0.70929 c 3.79717,-6.56913 6.90394,-12.40119 6.90394,-12.96014 0,-0.55895 -3.132,-6.42649 -6.96,-13.03899 l -6.96,-12.02272 -14.83154,0.26286 -14.83154,0.26286 -7.08415,12.20502 -7.08414,12.20501 7.03568,12.48985 7.03569,12.48985 14.93606,0.0251 14.93607,0.0251 z m 90.28229,-0.56028 7.05834,-12.44777 -7.1068,-12.24404 -7.10681,-12.24404 -14.83154,-0.26286 -14.83154,-0.26286 -6.96,12.02272 c -3.828,6.6125 -6.96,12.48004 -6.96,13.03899 0,0.55895 3.10677,6.39101 6.90394,12.96014 l 6.90394,11.94387 14.93606,-0.0282 14.93606,-0.0282 z m 89.83698,-0.11988 7.06999,-12.14403 -7.16592,-12.57597 -7.16591,-12.57597 h -14.74289 -14.74289 l -7.28428,12.55744 -7.28427,12.55744 5.41243,9.28256 c 2.97684,5.10541 6.26342,10.69732 7.3035,12.42647 l 1.89106,3.1439 14.8196,-0.2639 14.8196,-0.26391 z m -314.53973,-25.99541 7.09252,-12.21945 -7.10569,-12.26055 -7.10568,-12.26056 -14.82356,-0.26318 -14.82356,-0.26319 -6.95482,11.96878 c -3.82515,6.58282 -6.954816,12.42751 -6.954816,12.98818 0,0.56068 3.082226,6.42783 6.849396,13.03813 l 6.8494,12.01872 14.94214,-0.26372 14.94214,-0.26372 z m 89.75479,0.27017 7.17969,-12.42926 -7.20644,-12.5545 -7.20644,-12.55449 -14.85457,0.26376 -14.85457,0.26376 -7.14686,12.23917 -7.14686,12.23917 4.01277,6.96083 c 2.20703,3.82846 5.49758,9.44483 7.31234,12.48083 l 3.29956,5.52 h 14.71585 14.71584 z m 89.48961,0.73929 c 3.696,-6.41782 6.86783,-12.04052 7.0485,-12.49489 0.18068,-0.45437 -2.84332,-6.42914 -6.72,-13.27728 l -7.0485,-12.45116 h -14.88 -14.88 l -7.0485,12.45116 c -3.87667,6.84814 -6.90067,12.82291 -6.72,13.27728 0.18068,0.45437 3.3525,6.07707 7.0485,12.49489 l 6.72,11.66877 h 14.88 14.88 z m 90.41524,-1.02787 7.1139,-12.23785 -7.14859,-12.24215 -7.1486,-12.24215 -14.85457,-0.26376 -14.85457,-0.26376 -7.20644,12.55449 -7.20645,12.5545 7.19346,12.45309 7.19345,12.4531 14.90225,-0.26383 14.90225,-0.26383 z m 89.46889,0.72285 c 3.75973,-6.59725 6.83588,-12.45373 6.83588,-13.01441 0,-0.56067 -3.12967,-6.40536 -6.95482,-12.98818 l -6.95482,-11.96878 -14.83964,0.26319 -14.83965,0.26318 -7.06273,12.30626 -7.06274,12.30627 6.45301,11.21373 c 3.54915,6.16756 6.86779,11.75374 7.37474,12.41374 0.66618,0.86729 4.98265,1.2 15.56832,1.2 h 14.64657 z m -314.2123,-26.59248 7.08995,-12.18748 -7.06548,-12.29252 -7.06547,-12.29252 -14.88701,-0.26382 -14.887,-0.26383 -7.24239,12.53782 -7.24239,12.53781 7.2461,12.46982 7.2461,12.46982 14.85882,-0.26381 14.85882,-0.26381 z m 89.50423,0.72361 c 3.79717,-6.56912 6.90394,-12.42561 6.90394,-13.01441 0,-0.58879 -3.12967,-6.45649 -6.95482,-13.03931 l -6.95482,-11.96878 -14.87909,0.26319 -14.8791,0.26318 -7.04733,12.2241 -7.04733,12.2241 5.05663,8.8959 c 2.78115,4.89275 6.06313,10.5159 7.29329,12.4959 l 2.23666,3.6 h 14.68402 14.68402 z m 90.25693,-0.59149 7.03298,-12.4851 -7.03907,-12.20977 -7.03907,-12.20977 -14.87909,-0.26318 -14.8791,-0.26319 -6.95482,11.96878 c -3.82515,6.58282 -6.95482,12.44974 -6.95482,13.03759 0,0.58785 3.12361,6.44434 6.94135,13.01441 l 6.94135,11.94559 14.89865,-0.0251 14.89865,-0.0251 z m 89.76271,0.0894 7.23227,-12.44601 -7.24239,-12.53781 -7.24239,-12.53782 -14.88701,0.26383 -14.887,0.26382 -7.09305,12.34049 -7.09306,12.34048 3.23852,5.41952 c 1.78119,2.98073 5.04406,8.55151 7.25082,12.37951 l 4.01229,6.96 h 14.73936 14.73937 z m -314.46518,-26.19399 7.09377,-12.24 -7.09377,-12.24 -7.09377,-12.24 -14.86093,-0.26337 -14.86093,-0.26337 -6.91745,11.96724 c -3.80459,6.58198 -6.917446,12.44976 -6.917446,13.0395 0,0.58975 3.112856,6.45753 6.917446,13.03951 l 6.91745,11.96724 14.86093,-0.26337 14.86093,-0.26338 z m 89.43752,0.84581 c 3.73558,-6.53081 6.79196,-12.41942 6.79196,-13.08581 0,-0.66638 -3.06254,-6.56577 -6.80565,-13.10974 l -6.80566,-11.89814 -14.92501,0.26394 -14.92501,0.26394 -7.11342,12.23703 -7.11342,12.23702 4.01403,6.96298 c 2.20772,3.82963 5.49883,9.44697 7.31359,12.48297 l 3.29956,5.52 h 14.73854 14.73853 z m 89.83196,0.10599 c 3.696,-6.46349 6.72,-12.3998 6.72,-13.1918 0,-0.792 -3.024,-6.7283 -6.72,-13.19179 l -6.72,-11.75179 h -14.88 -14.88 l -6.72,11.75179 c -3.696,6.46349 -6.72,12.39979 -6.72,13.19179 0,0.792 3.024,6.72831 6.72,13.1918 l 6.72,11.75179 h 14.88 14.88 z m 90.41649,-0.9518 7.11515,-12.24 -7.11515,-12.24 -7.11516,-12.24 -14.92501,-0.26394 -14.92501,-0.26394 -6.80565,11.89814 c -3.74311,6.54397 -6.80566,12.44336 -6.80566,13.10974 0,0.66639 3.06255,6.56577 6.80566,13.10975 l 6.80565,11.89814 14.92501,-0.26394 14.92501,-0.26395 z m 89.39958,0.77613 c 3.79717,-6.56912 6.90394,-12.42638 6.90394,-13.01613 0,-0.58974 -3.11285,-6.45752 -6.91745,-13.0395 l -6.91745,-11.96724 -14.86092,0.26337 -14.86093,0.26337 -7.1018,12.25385 -7.10179,12.25384 5.95766,10.30616 c 3.27671,5.66838 6.56275,11.27815 7.3023,12.46615 1.29929,2.08715 1.83957,2.16 16.01857,2.16 h 14.67394 z M 194.49631,216.66748 201.56179,204.37496 194.47184,192.18748 187.38189,180 l -14.85882,-0.26381 -14.85882,-0.26381 -7.2461,12.46982 -7.2461,12.46981 7.24239,12.53782 7.24239,12.53782 14.887,-0.26383 14.88701,-0.26383 z m 89.44235,0.82692 c 3.81775,-6.57007 6.94135,-12.42733 6.94135,-13.01613 0,-0.58879 -3.11285,-6.4558 -6.91745,-13.03778 l -6.91744,-11.96724 -14.91647,0.26337 -14.91647,0.26338 -7.04733,12.22409 -7.04733,12.2241 5.05663,8.8959 c 2.78115,4.89275 6.06313,10.5159 7.29329,12.4959 l 2.23666,3.6 h 14.64661 14.64661 z m 90.28825,-0.74418 7.03907,-12.20977 -7.03298,-12.48509 -7.03299,-12.48509 -14.89865,-0.0251 -14.89865,-0.0251 -6.94135,11.94558 c -3.81774,6.57008 -6.94135,12.42656 -6.94135,13.01441 0,0.58786 3.12967,6.45477 6.95482,13.0376 l 6.95482,11.96877 14.8791,-0.26318 14.87909,-0.26319 z m 89.77244,0.17578 7.22863,-12.51399 -7.2461,-12.46981 -7.24611,-12.46982 -14.85881,0.26381 -14.85882,0.26381 -7.09979,12.20438 -7.09979,12.20439 3.2121,5.55561 c 1.76665,3.05559 5.02153,8.68761 7.23307,12.51561 l 4.02098,6.96 h 14.74301 14.743 z m -314.45691,-26.14656 7.10569,-12.26056 -7.09252,-12.21944 -7.09253,-12.21944 -14.94214,-0.26372 -14.94214,-0.26372 -6.8494,12.01872 c -3.76717,6.61029 -6.849396,12.47745 -6.849396,13.03813 0,0.56067 3.129666,6.40535 6.954816,12.98818 l 6.95482,11.96877 14.82356,-0.26318 14.82356,-0.26319 z m 89.75485,0.20982 7.1928,-12.53073 -7.19345,-12.45309 -7.19345,-12.4531 -14.90226,0.26383 -14.90225,0.26383 -7.12021,12.2487 -7.12022,12.24871 5.45289,9.35129 c 2.99909,5.14321 6.29722,10.75529 7.32918,12.47129 l 1.87628,3.12 h 14.69394 14.69394 z m 89.83122,0.0729 c 3.87668,-6.84814 6.90068,-12.82292 6.72,-13.27728 -0.18067,-0.45437 -3.3525,-6.07707 -7.0485,-12.49489 l -6.72,-11.66878 h -14.88 -14.88 l -6.72,11.66878 c -3.696,6.41782 -6.86782,12.04052 -7.0485,12.49489 -0.18067,0.45436 2.84333,6.42914 6.72,13.27728 l 7.0485,12.45116 h 14.88 14.88 z m 90.05205,-0.2643 7.14859,-12.24215 -7.1139,-12.23785 -7.11391,-12.23785 -14.90225,-0.26383 -14.90225,-0.26383 -7.19345,12.4531 -7.19346,12.45309 7.20645,12.55449 7.20644,12.5545 14.85457,-0.26376 14.85457,-0.26377 z m 89.39811,0.77656 c 3.81774,-6.57008 6.94135,-12.40433 6.94135,-12.965 0,-0.56068 -3.08223,-6.42784 -6.8494,-13.03813 l -6.8494,-12.01872 -14.94214,0.26372 -14.94214,0.26372 -7.1006,12.23336 -7.1006,12.23336 5.96963,10.32664 c 3.28329,5.67965 6.57472,11.29863 7.31427,12.48663 1.29904,2.08676 1.84096,2.16 15.98116,2.16 h 14.63653 z m -314.24824,-26.52126 7.27813,-12.54684 -7.10959,-12.17316 -7.10959,-12.17315 h -15.00607 -15.00608 l -7.07127,12.14403 -7.07126,12.14403 7.16591,12.57597 7.16591,12.57597 h 14.74289 14.7429 z m 89.60213,0.54699 c 3.8211,-6.59993 6.94745,-12.45719 6.94745,-13.01614 0,-0.55894 -3.10677,-6.39101 -6.90394,-12.96013 l -6.90393,-11.94387 -14.93607,0.0251 -14.93606,0.0251 -7.03553,12.48957 -7.03552,12.48956 6.47133,11.2453 c 3.55923,6.18491 6.88612,11.7853 7.39307,12.4453 0.66564,0.86657 4.96034,1.2 15.45675,1.2 h 14.535 z m 90.25468,-0.68516 7.08415,-12.20501 -7.03569,-12.48985 -7.03569,-12.48985 -14.93606,-0.0251 -14.93606,-0.0251 -6.90394,11.94387 c -3.79717,6.56912 -6.90394,12.40119 -6.90394,12.96013 0,0.55895 3.132,6.4265 6.96,13.039 l 6.96,12.02272 14.83154,-0.26286 14.83154,-0.26286 z m 89.81217,0.10905 7.16592,-12.57597 -7.07127,-12.14403 -7.07127,-12.14403 h -15.00607 -15.00608 l -7.10959,12.17315 -7.10959,12.17316 7.27813,12.54684 7.27813,12.54685 h 14.74289 14.74289 z m -224.7067,-25.92943 7.22163,-12.5854 -7.06578,-12.1346 -7.06578,-12.1346 H 217.2782 202.17362 l -7.05043,12.28261 -7.05043,12.28261 3.27368,5.47739 c 1.80052,3.01256 5.07921,8.60939 7.28597,12.43739 l 4.01229,6.96 h 14.71319 14.71318 z m 89.84071,0.12472 c 3.87937,-6.8304 6.90337,-12.80394 6.72,-13.27455 -0.18337,-0.47061 -3.35741,-6.10426 -7.05341,-12.51923 l -6.72,-11.66357 h -14.88 -14.88 l -6.72,11.66357 c -3.696,6.41497 -6.87003,12.04862 -7.0534,12.51923 -0.18337,0.47061 2.84063,6.44415 6.72,13.27455 l 7.0534,12.4189 h 14.88 14.88 z m 90.01287,-0.266 7.12439,-12.24668 -7.02214,-12.23332 -7.02213,-12.23332 h -15.10459 -15.10458 l -7.06578,12.1346 -7.06577,12.1346 7.23521,12.60908 7.23522,12.60907 14.83289,-0.26368 14.83288,-0.26367 z m -224.81452,-25.74247 7.27947,-12.54915 -7.07623,-12.17085 -7.07623,-12.170852 h -15.06742 -15.06742 l -7.05414,12.141996 -7.05415,12.141996 7.21994,12.578 7.21994,12.57801 h 14.69839 14.69839 z m 89.40738,0.83834 c 3.66348,-6.44095 6.79286,-12.23309 6.95419,-12.87142 0.16134,-0.63833 -2.80681,-6.600469 -6.59588,-13.249189 l -6.88921,-12.088583 -15.00412,0.0282 -15.00412,0.0282 -7.05452,12.44109 -7.05453,12.441092 5.97202,10.33071 c 3.2846,5.6819 6.5771,11.30272 7.31665,12.49072 1.29931,2.08717 1.83946,2.16 16.02165,2.16 h 14.67701 z m 90.44573,-1.03394 7.10812,-12.26475 -7.04649,-12.427053 -7.0465,-12.427057 -15.00412,-0.0282 -15.00411,-0.0282 -6.88922,12.088583 c -3.78906,6.64872 -6.75721,12.610857 -6.59588,13.249187 0.16133,0.63833 3.29668,6.441 6.96744,12.89481 l 6.6741,11.7342 14.86427,-0.26339 14.86427,-0.26339 z m 89.77955,0.16674 7.21994,-12.578 -7.05414,-12.141996 -7.05414,-12.141996 h -15.03273 -15.03272 l -7.10372,12.163113 -7.10372,12.163109 7.2967,12.55689 7.29669,12.55689 h 14.67395 14.67395 z M 239.29271,87.2546 246.51434,74.669203 239.44856,62.534601 232.38278,50.399999 H 217.2943 202.20581 l -7.04419,12.152252 -7.04418,12.152252 3.24265,5.607748 c 1.78346,3.08426 5.05209,8.739747 7.26363,12.567747 l 4.02098,6.959999 h 14.71319 14.71318 z m 89.83491,0.100008 c 3.87618,-6.835948 6.90018,-12.793425 6.72,-13.238837 -0.18019,-0.445411 -3.32499,-6.071674 -6.98847,-12.502806 l -6.66085,-11.692966 -14.93915,9.87e-4 -14.93914,9.87e-4 -6.72,11.663573 c -3.696,6.414965 -6.86742,12.040783 -7.0476,12.501819 -0.18018,0.461035 2.84382,6.431295 6.72,13.267243 l 7.0476,12.428997 h 14.88 14.88 z m 90.03898,-0.339802 7.09576,-12.345191 -7.03407,-12.134808 -7.03407,-12.134808 h -15.08849 -15.08849 l -7.04215,12.094022 -7.04215,12.094023 7.2003,12.64971 7.2003,12.64971 14.86865,-0.263733 14.86866,-0.263734 z M 283.68001,62.243348 c 3.696,-6.421072 6.8581,-12.244436 7.02689,-12.940809 0.16878,-0.696373 -2.80663,-6.674324 -6.61204,-13.284336 l -6.91893,-12.018204 -14.98796,0.0282 -14.98796,0.0282 -7.02508,12.389637 -7.02507,12.389638 5.93446,10.382165 c 3.26396,5.710192 6.5432,11.354166 7.28721,12.542166 1.30657,2.086282 1.85163,2.159966 15.97061,2.159013 l 14.61787,-9.87e-4 z m 90.50487,-1.068097 7.10812,-12.264746 -7.04649,-12.427057 -7.0465,-12.427056 -15.00412,-0.0282 -15.00411,-0.0282 -6.88922,12.088583 c -3.78906,6.648721 -6.75721,12.626672 -6.59588,13.284337 0.16133,0.657664 3.31733,6.457711 7.01333,12.888993 l 6.72,11.69324 14.81838,-0.257577 14.81837,-0.257577 z"
       id="path5" />
  </g>
</svg>
