<?xml version="1.0" encoding="UTF-8" standalone="no"?>
<!-- Created with Inkscape (http://www.inkscape.org/) -->

<svg
   version="1.1"
   id="svg1"
   width="432"
   height="432"
   viewBox="0 0 432 432"
   sodipodi:docname="binary_r_luvoir_a_adj_nogap.png"
   xmlns:inkscape="http://www.inkscape.org/namespaces/inkscape"
   xmlns:sodipodi="http://sodipodi.sourceforge.net/DTD/sodipodi-0.dtd"
   xmlns="http://www.w3.org/2000/svg"
   xmlns:svg="http://www.w3.org/2000/svg">
  <defs
     id="defs1" />
  <sodipodi:namedview
     id="namedview1"
     pagecolor="#ffffff"
     bordercolor="#000000"
     borderopacity="0.25"
     inkscape:showpageshadow="2"
     inkscape:pageopacity="0.0"
     inkscape:pagecheckerboard="0"
     inkscape:deskcolor="#d1d1d1" />
  <g
     inkscape:groupmode="layer"
     inkscape:label="Image"
     id="g1"
     transform="translate(-91.200005,-14.4)">
    <path
       style="fill:#000000"
       d="M 91.200004,230.39999 V 14.4 H 307.20001 523.20002 v 215.99999 216 H 307.20001 91.200004 Z m 200.640006,203.52 c 3.53375,-6.17511 5.47146,-8.64 6.79215,-8.64 1.81049,0 1.84785,-1.79568 1.84785,-88.8 0,-87.00432 -0.0374,-88.8 -1.84785,-88.8 -1.31935,0 -3.2483,-2.44723 -6.74432,-8.55642 l -4.89647,-8.55643 1.63583,-3.43038 1.63584,-3.43039 -21.13833,-93.85318 -21.13834,-93.853191 -6.15318,-0.270694 -6.15318,-0.270695 -5.13072,9.150694 -5.13071,9.150695 h -10.27091 -10.2709 l -5.03953,8.639999 -5.03952,8.64 -10.27886,0.02097 -10.27885,0.02097 -5.09044,9.099032 -5.09044,9.099032 h -10.30767 -10.30768 l -4.95082,8.652706 -4.95083,8.652702 4.88103,8.38729 c 2.68457,4.61301 4.87981,8.8193 4.87832,9.3473 -0.001,0.528 -2.24606,4.74 -4.98792,9.36 l -4.98519,8.4 h -10.32638 -10.32638 l -1.56705,3.12 c -0.86189,1.716 -3.06706,5.71379 -4.90039,8.88397 l -3.33333,5.76398 5.11859,8.63602 5.1186,8.63603 -2.72224,4.8 c -1.49723,2.64 -3.78866,6.68292 -5.09206,8.98427 l -2.36983,4.18428 4.82815,8.29572 c 2.65548,4.56265 4.8407,8.74212 4.85605,9.28772 0.0153,0.5456 -2.19627,4.7576 -4.9147,9.36 l -4.9426,8.368 4.9426,8.36801 c 2.71843,4.6024 4.93005,8.8144 4.9147,9.36 -0.0153,0.5456 -2.20057,4.72507 -4.85605,9.28771 l -4.82815,8.29572 2.36983,4.18428 c 1.3034,2.30136 3.59483,6.34428 5.09206,8.98428 l 2.72224,4.8 -5.1186,8.63603 -5.11859,8.63602 3.33333,5.76398 c 1.83333,3.17018 4.0385,7.16797 4.90039,8.88397 l 1.56705,3.12 h 10.32638 10.32638 l 4.98519,8.4 c 2.74186,4.62 4.98642,8.832 4.98792,9.36 0.001,0.528 -2.19375,4.73428 -4.87832,9.34729 l -4.88103,8.3873 4.95083,8.6527 4.95082,8.65271 h 10.30768 10.30767 l 5.09044,9.09903 5.09044,9.09903 10.27885,0.021 10.27886,0.021 5.03952,8.64 5.03953,8.64 h 10.2709 10.27091 l 5.11493,9.09066 5.11494,9.09065 10.46944,0.26934 10.46943,0.26935 4.77481,8.4 4.77481,8.4 h 10.37939 10.37939 z m 61.19788,0.24 4.77481,-8.4 10.46944,-0.26935 10.46943,-0.26934 5.11494,-9.09065 5.11494,-9.09066 h 10.2709 10.2709 l 5.03953,-8.64 5.03953,-8.64 10.27885,-0.021 10.27886,-0.021 5.09043,-9.09903 5.09044,-9.09903 h 10.30768 10.30767 l 4.95083,-8.65271 4.95082,-8.6527 -4.88103,-8.3873 c -2.68456,-4.61301 -4.87981,-8.81929 -4.87831,-9.34729 0.001,-0.528 2.24605,-4.74 4.98791,-9.36 l 4.9852,-8.4 h 10.32637 10.32638 l 1.56706,-3.12 c 0.86188,-1.716 3.06705,-5.71379 4.90038,-8.88397 l 3.33333,-5.76398 -5.11859,-8.63602 -5.11859,-8.63603 2.72224,-4.8 c 1.49723,-2.64 3.78865,-6.68292 5.09206,-8.98428 l 2.36982,-4.18428 -4.82814,-8.29572 c -2.65548,-4.56264 -4.8407,-8.74211 -4.85605,-9.28771 -0.0154,-0.5456 2.19626,-4.7576 4.91469,-9.36 l 4.94261,-8.36801 -4.94261,-8.368 c -2.71843,-4.6024 -4.93004,-8.8144 -4.91469,-9.36 0.0153,-0.5456 2.20057,-4.72507 4.85605,-9.28772 l 4.82814,-8.29572 -2.36982,-4.18428 c -1.30341,-2.30135 -3.59483,-6.34427 -5.09206,-8.98427 l -2.72224,-4.8 5.11859,-8.63603 5.11859,-8.63602 -3.33333,-5.76398 c -1.83333,-3.17018 -4.0385,-7.16797 -4.90038,-8.88397 l -1.56706,-3.12 h -10.32638 -10.32637 l -4.9852,-8.4 c -2.74186,-4.62 -4.98642,-8.832 -4.98791,-9.36 -10e-4,-0.528 2.19375,-4.73429 4.87831,-9.3473 l 4.88103,-8.38729 -4.95082,-8.652706 -4.95083,-8.652706 h -10.30767 -10.30768 l -5.09044,-9.099032 -5.09043,-9.099032 -10.27886,-0.02097 -10.27885,-0.02097 -5.03953,-8.64 -5.03953,-8.639999 h -10.2709 -10.2709 l -5.13072,-9.150695 -5.13071,-9.150694 -6.14814,0.270695 -6.14814,0.270694 -21.14348,93.852975 -21.14348,93.85297 1.63594,3.4306 1.63594,3.4306 -4.89647,8.55643 c -3.49602,6.10919 -5.42498,8.55642 -6.74432,8.55642 -1.81049,0 -1.84786,1.79568 -1.84786,88.8 0,87.00432 0.0374,88.8 1.84786,88.8 1.32068,0 3.2584,2.46489 6.79214,8.64 l 4.94429,8.64 h 10.37939 10.37939 z M 333.80775,122.4 c 11.20225,-49.632002 20.38226,-91.002545 20.4,-91.934543 0.0178,-0.931999 -1.30497,-4.063999 -2.93938,-6.96 L 348.29673,18.24 H 337.90052 327.5043 l -4.94429,8.639999 -4.94429,8.64 H 307.20001 296.7843 l -4.94429,-8.64 L 286.89572,18.24 h -10.39621 -10.39622 l -2.97164,5.265457 c -1.6344,2.896001 -2.97164,5.895895 -2.97164,6.666431 0,1.437725 39.97003,179.549602 40.79639,181.794242 0.32548,0.8841 2.20548,1.163 6.47119,0.96 l 6.01242,-0.28614 z"
       id="path1"
       inkscape:export-filename="..\..\luvoir_a_nogap_notrans_1024.svg"
       inkscape:export-xdpi="96"
       inkscape:export-ydpi="96" />
  </g>
</svg>
