<?xml version="1.0" encoding="UTF-8" standalone="no"?>
<!-- Created with Inkscape (http://www.inkscape.org/) -->

<svg
   version="1.1"
   id="svg1"
   width="432"
   height="432"
   viewBox="0 0 432 432"
   xmlns="http://www.w3.org/2000/svg"
   xmlns:svg="http://www.w3.org/2000/svg">
  <defs
     id="defs1" />
  <g
     id="g1"
     transform="translate(-91.200005,-14.4)">
    <path
       style="fill:#000000"
       d="M 91.200004,230.39999 V 14.4 H 307.20001 523.20002 v 215.99999 216 H 307.20001 91.200004 Z m 200.073516,202.87475 4.7135,-8.31258 -2.71915,-4.88108 c -1.49554,-2.6846 -3.73003,-6.50109 -4.96555,-8.48109 l -2.24639,-3.6 h -9.53214 -9.53214 l -4.91636,8.3531 c -3.4235,5.81667 -4.67935,8.82104 -4.13582,9.89417 0.4293,0.8476 2.50854,4.64581 4.62054,8.44048 l 3.84,6.8994 10.08,9e-5 10.08,9e-5 z m 60.56649,1.413 c 2.112,-3.79467 4.19125,-7.59288 4.62054,-8.44048 0.54353,-1.07313 -0.71231,-4.0775 -4.13582,-9.89417 l -4.91635,-8.3531 h -9.53214 -9.53214 l -2.2464,3.6 c -1.23551,1.98 -3.47001,5.79649 -4.96554,8.48109 l -2.71916,4.88108 4.71351,8.31258 4.7135,8.31258 10.08,-9e-5 10.08,-9e-5 z m -92.16,-17.28 c 2.112,-3.79467 4.21842,-7.65378 4.68092,-8.5758 0.61908,-1.23415 -0.3805,-3.85245 -3.78892,-9.92474 l -4.62985,-8.24833 -10.09158,0.27056 -10.09158,0.27056 -4.56801,7.68 c -2.51241,4.224 -4.34089,8.328 -4.06329,9.12 0.2776,0.792 2.46449,4.788 4.85976,8.88 l 4.35502,7.44 9.74877,-0.006 9.74876,-0.006 z m 39.84,-9.88775 c 0,-12.80338 -0.28547,-16.79849 -1.2,-16.79367 -1.01045,0.005 -10.32,15.00821 -10.32,16.63128 0,0.50987 5.38954,10.12048 8.30104,14.80239 2.74165,4.40877 3.21896,2.23793 3.21896,-14.64 z m 20.19205,11.92837 c 1.36525,-2.3366 3.48269,-6.03914 4.7054,-8.22786 l 2.22312,-3.97949 -4.68028,-8.25417 c -2.57416,-4.5398 -5.22029,-8.25703 -5.88029,-8.26052 -0.91474,-0.005 -1.2,4.00629 -1.2,16.87367 0,18.54106 0.37882,19.46995 4.83205,11.84837 z m 63.48012,-3.9462 4.82448,-8.33782 -4.68374,-7.98217 -4.68375,-7.98218 -10.09565,-0.27056 -10.09566,-0.27056 -4.62985,8.24833 c -3.40842,6.07229 -4.408,8.69059 -3.78892,9.92474 0.46251,0.92202 2.56892,4.79212 4.68092,8.60022 l 3.84,6.92383 9.90385,-0.258 9.90385,-0.258 z m -93.37116,-15.01267 c 6.67919,-11.43636 6.5985,-10.24336 1.31318,-19.41468 l -4.67647,-8.11482 h -9.92039 -9.9204 l -4.75883,8.36817 -4.75883,8.36816 4.96251,8.67184 4.96251,8.67183 h 9.48551 9.48551 z m 62.51721,-2.12133 4.96251,-8.67184 -4.75883,-8.36816 -4.75883,-8.36817 h -9.92039 -9.9204 l -4.67647,8.11482 c -5.28532,9.17132 -5.36601,7.97832 1.31319,19.41468 l 3.82569,6.5505 h 9.48551 9.48551 z m -122.52059,-0.0938 c 2.4323,-4.29308 4.42237,-8.18199 4.42237,-8.64203 0,-0.46003 -2.052,-4.497 -4.56,-8.97105 l -4.56,-8.13463 -9.76786,-0.0233 -9.76785,-0.0233 -4.94301,8.63776 -4.94301,8.63777 3.56375,6.00223 c 1.96006,3.30123 4.16191,6.97424 4.893,8.16224 1.24043,2.01569 1.99437,2.16 11.28474,2.16 h 9.95551 z m 184.16071,-0.62564 4.6902,-7.95124 -4.92641,-8.60876 -4.92642,-8.60876 -9.76785,0.0233 -9.76785,0.0233 -4.56,8.13463 c -2.508,4.47405 -4.56,8.51102 -4.56,8.97105 0,0.46004 1.99803,4.36301 4.44007,8.67329 l 4.44008,7.83686 10.12399,-0.27126 10.12399,-0.27126 z m -214.65708,-17.31657 4.84503,-8.46781 -4.87465,-8.33219 -4.87465,-8.33219 h -9.80615 -9.80615 l -3.75166,6.48 c -2.06341,3.564 -4.20856,7.36025 -4.767,8.43612 -0.84128,1.62075 -0.19207,3.39004 3.78676,10.32 l 4.80212,8.36388 h 9.80066 9.80065 z m 61.07874,0.39437 c 2.508,-4.41083 4.56,-8.33667 4.56,-8.72408 0,-0.38742 -2.052,-4.33448 -4.56,-8.77124 l -4.56,-8.06685 -10.01509,0.2578 -10.0151,0.25781 -2.52207,4.32 c -1.38714,2.376 -3.49737,6.06609 -4.68939,8.2002 l -2.16732,3.8802 4.92031,8.3598 4.9203,8.3598 9.78418,-0.0269 9.78418,-0.0269 z m 39.12,-8.72656 c 0,-12.80342 -0.28547,-16.79847 -1.2,-16.79358 -0.98483,0.005 -5.80063,7.67272 -9.71401,15.46614 -0.7835,1.56032 0.57639,4.37701 7.70903,15.96744 2.72289,4.42465 3.20498,2.22252 3.20498,-14.64 z m 22.2353,8.57402 c 2.50769,-4.18771 4.57863,-7.93893 4.60207,-8.33604 0.0971,-1.64533 -9.17342,-16.99316 -10.27737,-17.01464 -0.91538,-0.0178 -1.2,3.98021 -1.2,16.85666 0,12.75023 0.2833,16.78557 1.15793,16.49402 0.63686,-0.21228 3.20968,-3.81228 5.71737,-8 z m 61.29337,-0.13382 4.9203,-8.3598 -2.16732,-3.8802 c -1.19202,-2.13411 -3.30225,-5.8242 -4.68939,-8.2002 l -2.52207,-4.32 -10.01509,-0.25781 -10.0151,-0.2578 -4.56,8.06685 c -2.508,4.43676 -4.56,8.38382 -4.56,8.77124 0,0.38741 2.052,4.31325 4.56,8.72408 l 4.56,8.0197 9.78419,0.0269 9.78418,0.0269 z m 61.27854,-0.004 c 3.97883,-6.92996 4.62805,-8.69925 3.78677,-10.32 -0.55845,-1.07587 -2.7036,-4.87212 -4.76701,-8.43612 l -3.75165,-6.48 h -9.80615 -9.80615 l -4.87465,8.33219 -4.87465,8.33219 4.84503,8.46781 4.84503,8.46781 h 9.80066 9.80065 z m -276.08721,-16.9715 c 2.508,-4.42349 4.56,-8.57457 4.56,-9.22462 0,-0.65005 -2.052,-4.80113 -4.56,-9.22462 l -4.56,-8.04271 -9.63812,-0.006 -9.63811,-0.006 -4.94355,8.64 -4.94356,8.64 4.94356,8.64 4.94355,8.64 9.63811,-0.006 9.63812,-0.006 z m 61.36619,-0.10462 c 2.51068,-4.224 4.56487,-8.328 4.56487,-9.12 0,-0.792 -2.05419,-4.896 -4.56487,-9.12 l -4.56486,-7.68 -9.67422,-0.27219 -9.67421,-0.27218 -4.93075,8.67218 -4.93075,8.67219 4.93075,8.67219 4.93075,8.67219 9.67421,-0.27219 9.67422,-0.27219 z m 61.23667,-0.0294 c 2.66043,-4.5042 4.83714,-8.59495 4.83714,-9.09055 0,-0.4956 -2.17671,-4.58635 -4.83714,-9.09055 l -4.83714,-8.18945 h -9.47162 -9.47162 l -4.35503,7.44 c -2.39527,4.092 -4.59858,8.088 -4.89625,8.88 -0.29766,0.792 1.65521,5.22 4.33972,9.84 l 4.88094,8.4 h 9.48693 9.48693 z m 61.66547,-0.69055 4.86031,-8.4 -4.86031,-8.4 -4.86031,-8.4 -9.6074,-0.27296 -9.6074,-0.27296 -4.85661,8.22241 c -2.67113,4.52233 -4.85661,8.62791 -4.85661,9.12351 0,0.4956 2.18548,4.60118 4.85661,9.12351 l 4.85661,8.22241 9.6074,-0.27296 9.6074,-0.27296 z m 61.14783,0.24 4.91244,-8.64 -4.91244,-8.64 -4.91245,-8.64 h -9.47981 -9.47981 l -2.24639,3.6 c -1.23552,1.98 -3.50894,5.868 -5.05205,8.64 l -2.80564,5.04 2.80564,5.04 c 1.54311,2.772 3.81653,6.66 5.05205,8.64 l 2.24639,3.6 h 9.47981 9.47981 z m 61.28363,0 4.94355,-8.64 -4.94355,-8.64 -4.94356,-8.64 -9.63811,0.006 -9.63811,0.006 -4.56,8.04271 c -2.508,4.42349 -4.56,8.57457 -4.56,9.22462 0,0.65005 2.052,4.80113 4.56,9.22462 l 4.56,8.04271 9.63811,0.006 9.63811,0.006 z m -275.64815,-17.93219 4.87465,-8.33219 -4.84503,-8.46781 -4.84504,-8.46781 h -9.80065 -9.80066 l -4.80212,8.36388 c -3.97883,6.92996 -4.62804,8.69925 -3.78676,10.32 0.55844,1.07587 2.70359,4.87212 4.767,8.43612 l 3.75166,6.48 h 9.80615 9.80615 z m 61.10836,0.27681 c 2.508,-4.42349 4.56,-8.35857 4.56,-8.74462 0,-0.38605 -2.052,-4.32113 -4.56,-8.74462 l -4.56,-8.04271 -9.78418,-0.006 -9.78418,-0.006 -4.85582,8.25024 c -2.6707,4.53763 -4.85582,8.40249 -4.85582,8.58857 0,0.35257 5.96431,10.84355 8.30104,14.60119 1.25143,2.0124 2.01413,2.15957 11.16109,2.15367 l 9.81787,-0.006 z m 39.12,-8.74462 c 0,-10.41771 -0.36013,-16.8 -0.94796,-16.8 -0.98382,0 -3.52086,3.75331 -8.12893,12.026 l -2.68819,4.826 4.68254,8.35066 c 2.5754,4.59286 5.22254,8.36116 5.88254,8.374 0.91518,0.0178 1.2,-3.96421 1.2,-16.77666 z m 22.44254,8.40266 4.68254,-8.35066 -2.68819,-4.826 c -4.60807,-8.27269 -7.1451,-12.026 -8.12893,-12.026 -0.58783,0 -0.94796,6.38229 -0.94796,16.8 0,12.81245 0.28483,16.79446 1.2,16.77666 0.66,-0.0128 3.30715,-3.78114 5.88254,-8.374 z m 59.14972,3.59734 c 1.38714,-2.376 3.49737,-6.06609 4.68939,-8.2002 l 2.16732,-3.8802 -4.9203,-8.3598 -4.9203,-8.3598 -9.78418,0.0269 -9.78419,0.0269 -4.56,8.0197 c -2.508,4.41083 -4.56,8.33667 -4.56,8.72408 0,0.38742 2.052,4.33448 4.56,8.77124 l 4.56,8.06685 10.0151,-0.2578 10.01509,-0.25781 z m 62.23471,-1.68 c 2.06341,-3.564 4.20856,-7.36025 4.76701,-8.43612 0.84128,-1.62075 0.19206,-3.39004 -3.78677,-10.32 l -4.80212,-8.36388 h -9.80065 -9.80066 l -4.84503,8.46781 -4.84503,8.46781 4.87465,8.33219 4.87465,8.33219 h 9.80615 9.80615 z m -274.75404,-19.29946 4.91293,-8.4739 -4.91293,-8.77105 -4.91293,-8.77104 -9.6,-0.01 -9.6,-0.009 -5.03123,8.67673 -5.03123,8.67673 5.0212,8.59049 5.0212,8.59049 9.61003,-0.0128 9.61003,-0.0128 z m 61.08707,0.31814 c 2.508,-4.47405 4.56,-8.53089 4.56,-9.0152 0,-0.48431 -2.07392,-4.48122 -4.60871,-8.88202 l -4.6087,-8.00146 -9.57472,-0.27119 -9.57472,-0.27119 -5.07337,8.69802 -5.07337,8.69802 4.92894,8.61317 4.92894,8.61317 9.76785,-0.0233 9.76786,-0.0233 z m 61.45663,-0.4135 c 5.28253,-9.17126 5.36335,-7.97871 -1.31562,-19.41468 l -3.8257,-6.5505 h -9.48551 -9.48551 l -4.92446,8.60535 c -5.52411,9.65321 -5.63009,7.82761 1.13242,19.50756 l 3.77088,6.5129 9.72973,-0.2729 9.72973,-0.27291 z m 61.4077,-0.25334 4.7564,-8.36817 -4.96251,-8.67183 -4.96251,-8.67184 h -9.48551 -9.48551 l -3.82569,6.5505 c -6.58332,11.2722 -6.4774,10.51616 -2.4536,17.51264 6.74437,11.72694 4.99412,10.59936 15.97238,10.28996 l 9.69014,-0.2731 z m 61.20032,0.23499 4.92894,-8.61317 -5.07337,-8.69802 -5.07336,-8.69802 -9.57472,0.27119 -9.57472,0.27119 -4.60871,8.00146 c -2.53479,4.4008 -4.6087,8.39771 -4.6087,8.88202 0,0.48431 2.052,4.54115 4.56,9.0152 l 4.56,8.13464 9.76785,0.0233 9.76785,0.0233 z m 61.21661,0.0227 5.0212,-8.59049 -5.03123,-8.67673 -5.03122,-8.67673 -9.6,0.009 -9.6,0.01 -4.91293,8.77104 -4.91293,8.77105 4.91293,8.4739 4.91293,8.47391 9.61002,0.0128 9.61003,0.0128 z M 137.64066,310.18596 c 2.40279,-4.16572 4.49259,-8.00715 4.64402,-8.53651 0.15143,-0.52936 -1.85932,-4.68105 -4.46833,-9.22597 l -4.74366,-8.26349 h -9.69446 -9.69445 l -4.87664,8.52305 -4.87664,8.52305 4.75221,8.27695 4.75221,8.27695 h 9.91852 9.91852 z m 61.75869,-0.75448 4.73628,-8.32851 -4.86781,-8.45346 -4.86781,-8.45347 -9.72068,-0.018 -9.72068,-0.018 -4.94467,8.56763 -4.94467,8.56763 4.86249,8.23237 4.86249,8.23237 h 9.93439 9.93439 z m 61.18982,0.11074 c 3.39516,-6.04868 4.39073,-8.66026 3.77176,-9.89417 -0.4625,-0.92203 -2.56892,-4.79213 -4.68092,-8.60023 l -3.84,-6.92382 -9.9738,0.25799 -9.9738,0.258 -4.74205,8.34264 -4.74204,8.34264 4.05371,7.01736 c 2.22953,3.85955 4.47656,7.55736 4.99339,8.21736 0.64222,0.82013 4.03899,1.2 10.73037,1.2 h 9.79068 z m 38.93084,-8.66223 c 0,-12.88482 -0.27807,-16.78731 -1.17488,-16.48837 -1.10303,0.36768 -3.07173,3.397 -8.36257,12.86786 l -2.22312,3.97949 4.68029,8.25418 c 2.57415,4.53979 5.22028,8.25702 5.88028,8.26051 0.91474,0.005 1.2,-4.00629 1.2,-16.87367 z m 22.44029,8.61316 4.68028,-8.25418 -2.22312,-3.97949 c -5.29084,-9.47086 -7.25954,-12.50018 -8.36257,-12.86786 -0.89681,-0.29894 -1.17488,3.60355 -1.17488,16.48837 0,12.86738 0.28526,16.8785 1.2,16.87367 0.66,-0.003 3.30613,-3.72072 5.88029,-8.26051 z m 61.36489,-0.18217 4.67601,-7.96901 -4.74679,-8.35099 -4.74679,-8.35099 -9.97381,-0.258 -9.9738,-0.25799 -3.84,6.92382 c -2.112,3.8081 -4.21841,7.6782 -4.68092,8.60023 -0.61908,1.23414 0.3805,3.85245 3.78892,9.92473 l 4.62985,8.24834 10.09566,-0.27057 10.09565,-0.27056 z m 61.14304,0.21664 4.86249,-8.23237 -4.94468,-8.56763 -4.94467,-8.56763 -9.72068,0.018 -9.72067,0.018 -4.86781,8.45347 -4.86782,8.45346 4.73628,8.32851 4.73628,8.32851 h 9.93439 9.9344 z m 61.24908,-0.0446 4.75221,-8.27695 -4.87664,-8.52305 -4.87663,-8.52305 h -9.69446 -9.69445 l -4.74366,8.26349 c -2.60902,4.54492 -4.61977,8.69661 -4.46834,9.22597 0.15143,0.52936 2.24124,4.37079 4.64402,8.53651 l 4.3687,7.57403 h 9.91852 9.91852 z m -337.08819,-17.51955 4.8729,-8.51651 -4.79532,-8.28349 -4.79533,-8.2835 h -9.91333 -9.91334 l -3.75166,6.48 c -2.06341,3.564 -4.19169,7.344 -4.7295,8.4 -0.79594,1.56282 -0.0857,3.48268 3.81777,10.32 l 4.79563,8.4 h 9.76965 9.76964 z m 61.05089,0.46112 c 2.508,-4.42348 4.56,-8.49938 4.56,-9.05754 0,-0.55815 -2.0425,-4.5097 -4.53889,-8.78121 l -4.53889,-7.76638 -10.05225,0.27025 -10.05224,0.27026 -4.62168,8.02369 -4.62167,8.02368 4.88495,8.53632 4.88496,8.53631 9.76785,-0.006 9.76786,-0.006 z m 58.62231,4.45538 c 1.23552,-1.98 3.48044,-5.81504 4.98872,-8.52231 l 2.74233,-4.92232 -4.73668,-8.27455 -4.73668,-8.27455 -10.08,0.003 -10.08,0.003 -3.84,6.8994 c -2.112,3.79467 -4.19124,7.59288 -4.62054,8.44048 -0.54353,1.07313 0.71232,4.0775 4.13582,9.89417 l 4.91636,8.3531 h 9.53214 9.53214 z m 64.02241,-4.7531 c 3.42351,-5.81667 4.67935,-8.82104 4.13582,-9.89417 -0.42929,-0.8476 -2.50854,-4.64581 -4.62054,-8.44048 l -3.84,-6.8994 -10.08,-0.003 -10.08,-0.003 -4.56,7.96638 c -2.508,4.38151 -4.56,8.31959 -4.56,8.75129 0,0.67383 3.66259,7.15593 8.31502,14.71606 1.23415,2.00548 2.01043,2.16 10.8513,2.16 h 9.52205 z m 61.37595,-0.18321 4.88496,-8.53632 -4.62168,-8.02368 -4.62167,-8.02369 -10.03114,-0.26847 -10.03113,-0.26847 -4.56,7.82047 c -2.508,4.30126 -4.56,8.252 -4.56,8.77943 0,0.52742 2.052,4.57818 4.56,9.00166 l 4.56,8.04271 9.76785,0.006 9.76785,0.006 z m 61.27803,0.13631 c 3.90348,-6.83732 4.61372,-8.75718 3.81778,-10.32 -0.53782,-1.056 -2.6661,-4.836 -4.72951,-8.4 l -3.75165,-6.48 h -9.91334 -9.91334 l -4.79532,8.2835 -4.79532,8.28349 4.87289,8.51651 4.87289,8.5165 h 9.76965 9.76965 z m -336.71677,-18.31889 4.57111,-7.9989 -4.89841,-8.5611 -4.89841,-8.56111 -9.63811,0.0128 -9.63812,0.0128 -4.91856,8.48356 c -3.96192,6.83354 -4.72816,8.83825 -3.93964,10.30722 0.53841,1.00301 2.67119,4.754 4.73952,8.33552 l 3.76059,6.51186 10.14446,-0.27186 10.14445,-0.27186 z m 60.85405,0.84362 c 2.42221,-4.1994 4.40402,-8.13733 4.40402,-8.75095 0,-0.61363 -2.052,-4.73491 -4.56,-9.1584 l -4.56,-8.04271 -9.73185,-0.006 -9.73185,-0.006 -4.89549,8.61017 -4.89549,8.61017 3.46625,6.02983 c 6.58005,11.44656 4.87119,10.34983 16.12654,10.34983 h 9.97385 z m 61.32281,-0.10085 c 2.48667,-4.25487 4.5057,-8.25087 4.48674,-8.88 -0.019,-0.62913 -2.08866,-4.59988 -4.59934,-8.82388 l -4.56486,-7.68 -9.70988,-0.27258 -9.70987,-0.27258 -4.92728,8.61028 -4.92728,8.61027 4.59649,8.19896 4.59649,8.19897 10.11879,0.0233 10.1188,0.0233 z m 39.08121,-9.06388 c 0,-10.10925 -0.36753,-16.8 -0.92286,-16.8 -0.86557,0 -10.59714,15.62975 -10.59714,17.01994 0,1.68496 9.26932,16.57419 10.32,16.57693 0.91441,0.002 1.2,-3.9952 1.2,-16.79687 z m 22.32,8.82735 c 2.508,-4.3815 4.56,-8.25484 4.56,-8.60741 0,-1.39019 -9.73157,-17.01994 -10.59714,-17.01994 -0.55532,0 -0.92286,6.69075 -0.92286,16.8 0,12.80167 0.2856,16.79926 1.2,16.79687 0.66,-0.002 3.252,-3.58801 5.76,-7.96952 z m 61.4765,-0.273 4.59649,-8.19896 -4.92728,-8.61027 -4.92729,-8.61028 -9.70987,0.27258 -9.70987,0.27258 -4.56487,7.68 c -2.51067,4.224 -4.58037,8.19475 -4.59933,8.82388 -0.019,0.62913 2.00007,4.62513 4.48673,8.88 l 4.52121,7.73612 10.11879,-0.0233 10.1188,-0.0233 z m 61.33349,-0.1991 4.58772,-7.96476 -4.887,-8.59524 -4.887,-8.59525 -9.73185,0.006 -9.73185,0.006 -4.56,8.04271 c -2.508,4.42349 -4.56,8.54477 -4.56,9.1584 0,0.61362 1.98997,4.5657 4.42215,8.78239 l 4.42216,7.66672 10.16898,-0.27145 10.16898,-0.27144 z m 61.30176,-0.0513 4.58092,-8.01605 -4.94633,-8.53117 -4.94633,-8.53117 -9.63811,-0.0128 -9.63812,-0.0128 -4.871,8.51321 c -3.89505,6.80749 -4.67676,8.87522 -3.90153,10.32 0.53321,0.99374 2.66175,4.73713 4.73007,8.31865 l 3.7606,6.51186 10.14445,-0.27186 10.14446,-0.27186 z M 168.40598,256.87955 c 2.56817,-4.44424 4.66621,-8.36523 4.66232,-8.71331 -0.004,-0.34808 -2.04966,-4.27189 -4.54618,-8.71956 l -4.53911,-8.08669 h -9.90026 -9.90027 l -4.57124,7.79729 c -2.51418,4.28851 -4.57123,8.28782 -4.57123,8.88734 0,0.59953 2.0538,4.65075 4.56402,9.00271 l 4.56402,7.91266 h 9.78427 9.78427 z m 61.27403,0.0251 c 2.508,-4.42349 4.56,-8.37959 4.56,-8.79133 0,-0.41175 -2.0213,-4.34968 -4.49177,-8.75096 l -4.49177,-8.00234 h -9.85241 -9.85241 l -4.84822,8.23732 c -5.42397,9.21555 -5.52122,7.49875 1.06961,18.88268 l 3.75166,6.48 9.79765,-0.006 9.79766,-0.006 z m 60.72,1.14313 c 2.112,-3.79467 4.21405,-7.64399 4.67122,-8.55405 0.60731,-1.20894 -0.42705,-3.86684 -3.84,-9.86731 l -4.67122,-8.21266 -9.82796,-0.0269 -9.82795,-0.0269 -2.2464,3.6 c -1.23552,1.98 -3.45007,5.76102 -4.92123,8.40226 l -2.67484,4.80226 3.5881,6.23774 c 6.72188,11.68567 5.00288,10.55857 16.09241,10.55132 l 9.81787,-0.006 z m 62.21083,-1.72776 4.70857,-8.16 -2.66535,-4.8 c -1.46594,-2.64 -3.67622,-6.42 -4.91174,-8.4 l -2.24639,-3.6 -9.82796,0.0269 -9.82796,0.0269 -4.67121,8.21266 c -3.41296,6.00047 -4.44732,8.65837 -3.84,9.86731 0.45717,0.91006 2.55921,4.77037 4.67121,8.57847 l 3.84,6.92382 10.03114,-0.258 10.03113,-0.258 z m 61.31204,-0.10037 4.69527,-8.26038 -4.88489,-8.29962 -4.88488,-8.29963 h -9.85241 -9.85242 l -4.49177,8.00234 c -2.47047,4.40128 -4.49176,8.33921 -4.49176,8.75096 0,0.41174 2.052,4.3787 4.56,8.81547 l 4.56,8.06685 9.9738,-0.25781 9.9738,-0.25781 z m 60.87312,0.82771 c 2.51021,-4.35196 4.56402,-8.40318 4.56402,-9.00271 0,-0.59952 -2.05706,-4.59883 -4.57124,-8.88734 l -4.57124,-7.79729 h -9.90026 -9.90027 l -4.64849,8.28156 c -2.55668,4.55486 -4.60246,8.47866 -4.54618,8.71956 0.0563,0.24091 2.20354,4.0742 4.7717,8.51844 l 4.6694,8.08044 h 9.78427 9.78427 z m -336.78639,-18.24734 5.0496,-8.4 -5.0496,-8.4 -5.0496,-8.4 h -9.58777 -9.58777 l -5.01501,8.38365 -5.015,8.38365 4.38882,7.45635 c 6.2834,10.67516 5.12663,9.95971 15.60167,9.64937 l 9.21506,-0.27302 z m 60.89425,0.72 c 2.53554,-4.224 4.61007,-8.328 4.61007,-9.12 0,-0.792 -2.07453,-4.896 -4.61007,-9.12 l -4.61006,-7.68 -9.57032,-0.27119 -9.57032,-0.27119 -5.05772,8.67119 -5.05772,8.67119 5.05772,8.6712 5.05772,8.67119 9.57032,-0.27119 9.57032,-0.2712 z m 61.44745,-0.32145 c 2.53478,-4.4008 4.6087,-8.36015 4.6087,-8.79855 0,-0.4384 -2.07392,-4.39774 -4.6087,-8.79854 l -4.60871,-8.00146 -9.7005,-0.27258 -9.70051,-0.27258 -4.96294,8.67258 -4.96293,8.67258 4.96293,8.67259 4.96294,8.67258 9.70051,-0.27259 9.7005,-0.27258 z m 122.68871,-0.15855 4.94429,-8.64 -4.96294,-8.67258 -4.96294,-8.67258 -9.7005,0.27258 -9.70051,0.27258 -4.6087,8.00146 c -2.53479,4.4008 -4.60871,8.37365 -4.60871,8.82857 0,0.45491 1.56551,3.55025 3.47891,6.87854 6.58225,11.44957 4.9532,10.37143 15.67108,10.37143 h 9.50572 z m 61.28276,0 5.03953,-8.64 -5.03953,-8.64 -5.03953,-8.64 h -9.38957 -9.38958 l -2.24639,3.6 c -1.23552,1.98 -3.50894,5.868 -5.05205,8.64 l -2.80564,5.04 2.80564,5.04 c 1.54311,2.772 3.81653,6.66 5.05205,8.64 l 2.24639,3.6 h 9.38958 9.38957 z m 61.32021,-0.24 5.02213,-8.4 -5.02478,-8.4 -5.02478,-8.4 h -9.57554 -9.57554 l -5.015,8.38365 -5.015,8.38365 4.38881,7.45635 c 6.28311,10.67466 5.12786,9.95972 15.5921,9.64937 l 9.20547,-0.27302 z m -337.21443,-17.28 c 2.44506,-4.356 4.49084,-8.2798 4.54618,-8.71956 0.0554,-0.43976 -2.00059,-4.43576 -4.56876,-8.88 l -4.66939,-8.08044 h -9.78427 -9.78427 l -4.56402,7.91267 c -2.51022,4.35196 -4.56402,8.40318 -4.56402,9.00271 0,0.59952 2.05705,4.59882 4.57123,8.88733 l 4.57124,7.79729 h 9.90027 9.90026 z m 61.31968,-0.0823 c 2.47047,-4.40129 4.49177,-8.33922 4.49177,-8.75096 0,-0.41174 -2.052,-4.3787 -4.56,-8.81547 l -4.56,-8.06685 -9.9738,0.25781 -9.9738,0.2578 -4.69527,8.26038 -4.69526,8.26038 4.88488,8.29962 4.88489,8.29962 h 9.85241 9.85241 z m 58.09768,5.55716 c 0.61275,-1.34484 1.11409,-3.18377 1.11409,-4.0865 0,-1.51763 -4.25352,-21.52376 -5.40554,-25.42459 -0.44462,-1.50551 -1.5231,-1.68234 -8.78254,-1.44 l -8.27569,0.27626 -4.70781,8.16 -4.70781,8.16 2.66534,4.8 c 1.46594,2.64 3.67622,6.42 4.91174,8.4 l 2.2464,3.6 h 9.91386 c 9.69202,0 9.93879,-0.0547 11.02796,-2.44517 z m 61.8964,-1.15483 c 1.23552,-1.98 3.4458,-5.76 4.91174,-8.4 l 2.66535,-4.8 -4.70782,-8.16 -4.70781,-8.16 -8.27568,-0.27626 c -7.25944,-0.24234 -8.33792,-0.0655 -8.78254,1.44 -1.15203,3.90083 -5.40555,23.90696 -5.40555,25.42459 0,0.90273 0.50135,2.74166 1.1141,4.0865 1.08916,2.39046 1.33593,2.44517 11.02796,2.44517 h 9.91386 z m 64.02728,-4.66856 4.88387,-8.26856 -4.71293,-8.29144 -4.71292,-8.29144 -9.9738,-0.2578 -9.9738,-0.25781 -4.56,8.06685 c -2.508,4.43677 -4.56,8.40373 -4.56,8.81547 0,0.41174 2.02129,4.34967 4.49176,8.75096 l 4.49177,8.00233 h 9.87109 9.87109 z m 61.01918,0.47127 c 2.51418,-4.28851 4.57124,-8.28781 4.57124,-8.88733 0,-0.59953 -2.05381,-4.65075 -4.56402,-9.00271 l -4.56402,-7.91267 h -9.78427 -9.78427 l -4.57668,7.92 c -2.51718,4.356 -4.57312,8.352 -4.56877,8.88 0.004,0.528 2.00842,4.524 4.45347,8.88 l 4.44555,7.92 h 9.90027 9.90026 z m -336.85414,-18.04381 4.89841,-8.5611 -4.57339,-7.9989 -4.57339,-7.99889 H 123.36 113.03374 l -4.5832,8.01604 -4.5832,8.01605 4.94633,8.53118 4.94633,8.53117 9.63812,0.0128 9.63811,0.0128 z m 61.02537,0.50573 c 2.508,-4.42349 4.56,-8.54477 4.56,-9.1584 0,-0.61363 -1.98997,-4.5657 -4.42216,-8.7824 l -4.42215,-7.66671 -10.16898,0.27144 -10.16898,0.27145 -4.58772,7.96475 -4.58772,7.96476 4.887,8.59524 4.88701,8.59524 9.73185,-0.006 9.73185,-0.006 z m 61.36619,-0.10463 c 2.51068,-4.224 4.58038,-8.19474 4.59934,-8.82387 0.019,-0.62913 -2.00007,-4.62513 -4.48674,-8.88 l -4.5212,-7.73612 -10.1188,0.0233 -10.11879,0.0233 -4.59649,8.19896 -4.59649,8.19897 4.92728,8.61027 4.92728,8.61028 9.70987,-0.27258 9.70988,-0.27259 z m 54.53133,-1.2 c 1.17381,-5.148 2.67519,-11.736 3.33639,-14.63999 0.83484,-3.6666 0.9074,-5.94003 0.23744,-7.44 -0.91348,-2.04521 -1.51036,-2.16 -11.23135,-2.16 -9.72099,0 -10.31787,0.11479 -11.23135,2.16 -0.66995,1.49997 -0.5974,3.7734 0.23744,7.44 0.66121,2.90399 2.16258,9.49199 3.3364,14.63999 l 2.1342,9.36 h 5.52331 5.52332 z m 68.14683,0.78231 4.90864,-8.57769 -4.59649,-8.19897 -4.59649,-8.19896 -10.1188,-0.0233 -10.11879,-0.0233 -4.52121,7.73612 c -2.48666,4.25487 -4.52121,8.1755 -4.52121,8.7125 0,0.95645 7.04252,13.58518 8.89541,15.95137 0.6378,0.81448 3.96291,1.2 10.35,1.2 h 9.4103 z m 61.34636,-0.0175 4.887,-8.59524 -4.58772,-7.96476 -4.58771,-7.96475 -10.16898,-0.27145 -10.16898,-0.27144 -4.42216,7.66671 c -2.43218,4.2167 -4.42215,8.16877 -4.42215,8.7824 0,0.61363 2.052,4.73491 4.56,9.1584 l 4.56,8.04271 9.73185,0.006 9.73185,0.006 z m 61.23563,0.0385 4.94633,-8.53118 -4.58319,-8.01605 -4.5832,-8.01604 h -10.32627 -10.32627 l -4.57339,7.99889 -4.57339,7.9989 4.89841,8.5611 4.89841,8.5611 9.63812,-0.0128 9.63811,-0.0128 z M 168.7067,185.6365 l 4.79532,-8.2835 -4.8729,-8.5165 -4.87289,-8.5165 h -9.76964 -9.76965 l -4.79563,8.4 c -3.90348,6.83732 -4.61371,8.75718 -3.81777,10.32 0.53781,1.056 2.66609,4.836 4.7295,8.4 l 3.75166,6.47999 h 9.91334 9.91333 z m 61.0121,0.54737 c 2.48667,-4.25487 4.52121,-8.1928 4.52121,-8.75096 0,-0.55815 -2.052,-4.63405 -4.56,-9.05754 l -4.56,-8.04271 -9.76786,-0.006 -9.76785,-0.006 -4.89376,8.55169 -4.89375,8.55169 3.50052,6.08831 c 6.61783,11.51011 4.91948,10.4083 16.04362,10.4083 h 9.85666 z m 52.54159,7.01612 c 0.0112,-0.396 -1.56856,-7.95599 -3.51058,-16.79999 l -3.53097,-16.08 h -4.11359 -4.1136 l -4.91636,8.35309 c -3.4235,5.81667 -4.67935,8.82105 -4.13582,9.89418 0.4293,0.84759 2.50854,4.64581 4.62054,8.44048 l 3.84,6.8994 7.92,0.006 c 4.356,0.004 7.92917,-0.31758 7.94038,-0.71358 z m 69.57962,-6.19224 c 2.112,-3.79467 4.19125,-7.59289 4.62054,-8.44048 0.54353,-1.07313 -0.71231,-4.07751 -4.13582,-9.89418 L 347.40838,160.32 h -4.1136 -4.1136 l -3.53096,16.08 c -1.94203,8.844 -3.52179,16.40399 -3.51058,16.79999 0.0112,0.396 3.58437,0.71711 7.94037,0.71358 l 7.92,-0.006 z m 62.12395,-1.59144 4.62168,-8.02369 -4.88496,-8.53631 -4.88496,-8.53631 -9.76785,0.006 -9.76785,0.006 -4.56,8.04271 c -2.508,4.42349 -4.56,8.47424 -4.56,9.00167 0,0.52743 2.052,4.47817 4.56,8.77943 l 4.56,7.82047 10.03113,-0.26847 10.03114,-0.26848 z m 60.10302,2.02369 c 2.06341,-3.564 4.19169,-7.344 4.72951,-8.4 0.79594,-1.56282 0.0857,-3.48268 -3.81778,-10.32 l -4.79562,-8.4 h -9.76965 -9.76965 l -4.87289,8.5165 -4.87289,8.5165 4.79532,8.2835 4.79532,8.28349 h 9.91334 9.91334 z M 294.85003,175.10198 c -1.46952,-3.22523 -1.95953,-2.72283 -1.33665,1.37043 0.3388,2.22634 0.79035,2.88787 1.49218,2.18604 0.70183,-0.70183 0.65476,-1.77807 -0.15553,-3.55647 z m 26.27427,-2.1377 c -0.82164,-0.82164 -2.47672,4.00153 -1.86357,5.43073 0.51839,1.2083 0.8744,0.77613 1.44043,-1.74851 0.41353,-1.84442 0.60394,-3.50142 0.42314,-3.68222 z m -183.30795,-4.58777 c 2.60901,-4.54492 4.61976,-8.69661 4.46833,-9.22597 -0.15143,-0.52937 -2.24123,-4.3708 -4.64402,-8.53651 l -4.3687,-7.57403 h -9.91852 -9.91852 l -4.75221,8.27695 -4.75221,8.27695 4.87664,8.52305 4.87664,8.52305 h 9.69445 9.69446 z m 61.45147,-0.22603 4.86781,-8.45347 -4.73628,-8.3285 -4.73628,-8.32851 h -9.93439 -9.93439 l -4.86249,8.23236 -4.86249,8.23237 4.94467,8.56763 4.94467,8.56764 9.72068,-0.018 9.72068,-0.018 z m 60.41219,1.57727 c 2.112,-3.79467 4.21842,-7.65378 4.68092,-8.57581 0.61908,-1.23414 -0.3805,-3.85245 -3.78892,-9.92474 l -4.62985,-8.24833 -10.09565,0.27056 -10.09566,0.27057 -4.6378,7.90392 c -5.20009,8.86218 -5.32595,7.15331 1.38,18.73608 l 3.75165,6.48 9.79766,-0.006 9.79765,-0.006 z m 60.30896,1.63225 c 1.56115,-2.64 3.40203,-6.90827 4.09084,-9.48503 1.24974,-4.67516 1.24391,-4.6999 -2.77371,-11.7498 l -4.02609,-7.06478 h -10.08 -10.08 l -4.02609,7.06478 -4.02609,7.06477 1.25556,4.75958 c 0.69055,2.61777 1.96229,5.91403 2.82609,7.32503 0.86379,1.41099 2.23825,3.66034 3.05435,4.99855 1.45101,2.37929 1.69902,2.42706 11.21526,2.16 l 9.73143,-0.2731 z m 63.26544,-3.55099 4.74679,-8.35099 -4.67601,-7.96901 -4.67602,-7.96901 -10.09565,-0.27057 -10.09566,-0.27056 -4.62985,8.24833 c -3.40842,6.07229 -4.408,8.6906 -3.78892,9.92474 0.46251,0.92203 2.56892,4.79213 4.68092,8.60023 l 3.84,6.92382 9.9738,-0.258 9.97381,-0.25799 z m 61.18155,0.26798 4.90022,-8.563 -4.86522,-8.237 -4.86522,-8.23699 h -9.9344 -9.93439 l -4.73628,8.32851 -4.73628,8.3285 4.86782,8.45347 4.86781,8.45347 9.76785,0.018 9.76786,0.018 z m 61.15692,0.04 4.87664,-8.52305 -4.75221,-8.27695 -4.75221,-8.27695 h -9.91852 -9.91852 l -4.3687,7.57403 c -2.40278,4.16571 -4.49259,8.00714 -4.64402,8.53651 -0.15143,0.52936 1.85932,4.68105 4.46834,9.22597 l 4.74366,8.26349 h 9.69445 9.69446 z m -336.99994,-17.57254 4.91293,-8.77105 -4.91293,-8.4739 -4.91293,-8.47391 -9.61003,-0.0128 -9.61003,-0.0128 -5.0212,8.59049 -5.0212,8.59049 5.03123,8.67673 5.03123,8.67673 9.6,-0.009 9.6,-0.01 z m 61.03836,0.33413 c 2.53479,-4.4008 4.60871,-8.39771 4.60871,-8.88202 0,-0.48431 -2.052,-4.54116 -4.56,-9.0152 l -4.56,-8.13464 -9.76786,-0.0233 -9.76785,-0.0233 -4.92894,8.61317 -4.92894,8.61317 5.07337,8.69802 5.07337,8.69802 9.57472,-0.27119 9.57472,-0.27119 z m 44.95228,7.76146 c 0.0591,-1.80609 -7.28563,-32.8788 -7.7718,-32.87937 -0.30153,-3.5e-4 -2.60571,3.66488 -5.1204,8.14494 l -4.57217,8.14557 4.95255,8.65443 c 4.91452,8.58798 4.98147,8.65443 8.7204,8.65443 2.07232,0 3.77846,-0.324 3.79142,-0.72 z m 77.74469,-7.93443 4.95255,-8.65443 -4.57217,-8.14557 c -2.5147,-4.48006 -4.81888,-8.14529 -5.1204,-8.14494 -0.48618,5.7e-4 -7.83094,31.07328 -7.77181,32.87937 0.013,0.396 1.71911,0.72 3.79143,0.72 3.73892,0 3.80587,-0.0665 8.7204,-8.65443 z m 61.29016,-0.0124 5.05517,-8.66683 -4.92894,-8.61317 -4.92894,-8.61317 -9.76785,0.0233 -9.76785,0.0233 -4.56,8.13464 c -2.508,4.47404 -4.56,8.54439 -4.56,9.04522 0,0.50082 1.5655,3.63373 3.47891,6.96202 6.57854,11.44313 4.97226,10.37144 15.54484,10.37144 h 9.37948 z m 61.33281,-0.0355 5.03123,-8.67673 -5.0212,-8.59049 -5.0212,-8.59049 -9.61003,0.018 -9.61002,0.018 -4.89502,8.50031 -4.89501,8.50031 4.89501,8.7394 4.89502,8.73939 9.6,0.01 9.6,0.009 z M 292.72371,147.6 l 3.18404,-6 -4.7199,-8.16 c -3.50741,-6.06379 -5.29506,-8.24301 -6.95881,-8.48314 -1.90932,-0.27558 -2.16349,0.007 -1.72659,1.92 0.28178,1.23372 1.71674,7.75114 3.1888,14.48314 1.47206,6.732 2.94016,12.24 3.26245,12.24 0.32229,0 2.01879,-2.7 3.77001,-6 z m 35.98506,-6.24 c 1.47207,-6.732 2.90702,-13.24942 3.1888,-14.48314 0.4369,-1.91294 0.18273,-2.19558 -1.72658,-1.92 -1.66376,0.24013 -3.4514,2.41935 -6.95881,8.48314 l -4.71991,8.16 3.18404,6 c 1.75122,3.3 3.44773,6 3.77001,6 0.32229,0 1.79039,-5.508 3.26245,-12.24 z m -129.3875,-8.70781 4.84503,-8.46782 -4.87465,-8.33218 L 194.417,107.52 h -9.80615 -9.80615 l -3.75166,6.48 c -2.06341,3.564 -4.20856,7.36025 -4.767,8.43611 -0.84128,1.62076 -0.19207,3.39005 3.78676,10.32 l 4.80212,8.36389 h 9.80066 9.80065 z m 61.07874,0.41243 c 2.508,-4.42349 4.56,-8.35857 4.56,-8.74462 0,-0.38606 -2.052,-4.332 -4.56,-8.76877 l -4.56,-8.06685 -10.01509,0.25781 -10.0151,0.25781 -2.52207,4.32 c -1.38714,2.376 -3.49737,6.06609 -4.68939,8.2002 l -2.16732,3.8802 4.92031,8.3598 4.9203,8.3598 9.78418,-0.006 9.78418,-0.006 z m 58.62231,4.45538 c 1.23552,-1.98 3.45608,-5.7717 4.93458,-8.426 l 2.68819,-4.82601 -4.68254,-8.35065 -4.68254,-8.35066 h -10.08 -10.08 l -4.68254,8.35066 -4.68254,8.35065 2.68819,4.82601 c 1.4785,2.6543 3.69907,6.446 4.93458,8.426 l 2.2464,3.6 h 9.57591 9.57592 z m 64.02636,-4.7598 4.9203,-8.3598 -2.16732,-3.8802 c -1.19202,-2.13411 -3.30225,-5.8242 -4.68939,-8.2002 l -2.52207,-4.32 -10.01509,-0.25781 -10.0151,-0.25781 -4.56,8.06685 c -2.508,4.43677 -4.56,8.38271 -4.56,8.76877 0,0.38605 2.052,4.32113 4.56,8.74462 l 4.56,8.04271 9.78419,0.006 9.78418,0.006 z m 61.27854,-0.004 c 3.97883,-6.92995 4.62805,-8.69924 3.78677,-10.32 -0.55845,-1.07586 -2.7036,-4.87211 -4.76701,-8.43611 l -3.75165,-6.48 h -9.80615 -9.80615 l -4.87465,8.33219 -4.87465,8.33218 4.84503,8.46782 4.84503,8.46781 h 9.80066 9.80065 z M 168.24001,115.78462 c 2.508,-4.42349 4.56,-8.57457 4.56,-9.22462 0,-0.65006 -2.052,-4.80114 -4.56,-9.224625 l -4.56,-8.042709 -9.63812,-0.0063 -9.63811,-0.0063 -4.94355,8.639999 -4.94356,8.640005 4.94356,8.64 4.94355,8.64 9.63811,-0.006 9.63812,-0.006 z M 229.6062,115.68 c 2.51068,-4.224 4.56487,-8.328 4.56487,-9.12 0,-0.792 -2.05419,-4.896 -4.56487,-9.120003 l -4.56486,-7.679999 -9.67422,-0.272188 -9.67421,-0.272188 -4.93075,8.672188 -4.93075,8.67219 4.93075,8.67218 4.93075,8.67219 9.67421,-0.27219 9.67422,-0.27218 z m 61.23667,-0.0295 c 2.66043,-4.50419 4.83714,-8.59494 4.83714,-9.09054 0,-0.49561 -2.17671,-4.58635 -4.83714,-9.09055 l -4.83714,-8.189452 h -6.02794 -6.02794 L 277.80532,106.56 c 3.6086,16.1736 3.99455,17.28 6.02793,17.28 1.70884,0 3.2048,-1.74775 7.00962,-8.18946 z m 45.75184,-9.09054 3.85546,-17.280002 h -6.02794 -6.02794 l -4.83714,8.189452 c -2.66042,4.5042 -4.83714,8.59494 -4.83714,9.09055 0,0.4956 2.17672,4.58635 4.83714,9.09054 3.80483,6.44171 5.30078,8.18946 7.00962,8.18946 2.03338,0 2.41933,-1.1064 6.02794,-17.28 z m 77.06146,8.64 4.91244,-8.64 -4.91244,-8.640003 -4.91245,-8.639999 h -9.47981 -9.47981 l -2.24639,3.6 c -1.23552,1.979999 -3.50894,5.867999 -5.05205,8.640002 l -2.80564,5.04 2.80564,5.04 c 1.54311,2.772 3.81653,6.66 5.05205,8.64 l 2.24639,3.6 h 9.47981 9.47981 z m 61.28363,0 4.94355,-8.64 -4.94355,-8.640003 -4.94356,-8.639999 -9.63811,0.0063 -9.63811,0.0063 -4.56,8.042709 c -2.508,4.423483 -4.56,8.574563 -4.56,9.224623 0,0.65005 2.052,4.80113 4.56,9.22462 l 4.56,8.04271 9.63811,0.006 9.63811,0.006 z M 264.08543,111.0403 c -2.67486,-11.695193 -2.95902,-12.017851 -5.78824,-6.57229 -1.0242,1.97135 -0.62681,3.15381 3.44923,10.26339 2.53374,4.41944 4.68112,7.95282 4.77196,7.85195 0.0908,-0.10087 -1.00399,-5.29524 -2.43295,-11.54305 z m 91.5998,-1.61044 c 1.29943,-2.51281 1.28167,-3.12584 -0.17927,-6.18948 -0.89186,-1.87023 -1.87219,-3.400423 -2.17853,-3.400423 -0.30634,0 -1.55176,4.577373 -2.76761,10.171943 -1.21585,5.59457 -2.44359,10.88657 -2.72832,11.76 -0.56443,1.73141 5.52301,-7.83491 7.85373,-12.34204 z m -156.39358,-12.162091 4.87465,-8.332189 -4.84503,-8.467811 -4.84504,-8.467811 h -9.80065 -9.80066 l -4.80212,8.363882 c -3.97883,6.929954 -4.62804,8.699244 -3.78676,10.319999 0.55844,1.075865 2.70359,4.872118 4.767,8.436118 L 174.8047,105.6 h 9.80615 9.80615 z m 59.0631,3.771211 2.51474,-4.559023 -2.28559,-10.079999 c -1.25707,-5.544 -2.50493,-11.052 -2.77303,-12.24 -0.46535,-2.062131 -0.91906,-2.16 -10.01333,-2.16 h -9.52589 l -4.85582,8.250239 c -2.6707,4.537631 -4.85582,8.402486 -4.85582,8.588566 0,0.352577 5.96431,10.843556 8.30104,14.601197 1.25103,2.01175 2.01705,2.15993 11.16109,2.15902 l 9.81787,-9.7e-4 z m 63.48526,-3.620342 c 2.508,-4.474048 4.54082,-8.459544 4.51737,-8.856657 -0.0234,-0.397113 -2.11193,-4.178023 -4.64108,-8.402023 l -4.59845,-7.68 h -9.91784 -9.91783 l -4.59846,7.68 c -2.52914,4.224 -4.61763,8.00491 -4.64108,8.402023 -0.0234,0.397113 2.00937,4.382609 4.51737,8.856657 l 4.56,8.134632 h 10.08 10.08 z M 381.11227,100.8 c 1.38714,-2.376003 3.49737,-6.066093 4.68939,-8.200205 l 2.16732,-3.880202 -4.9203,-8.359797 -4.9203,-8.359798 h -9.52589 c -9.09428,0 -9.54798,0.09787 -10.01334,2.16 -0.26809,1.188 -1.51595,6.696 -2.77303,12.24 l -2.28559,10.079999 2.51474,4.583253 2.51474,4.58325 10.0151,-0.26325 10.01509,-0.26325 z m 62.23471,-1.680003 c 2.06341,-3.564 4.20856,-7.360253 4.76701,-8.436118 0.84128,-1.620755 0.19206,-3.390045 -3.78677,-10.319999 l -4.80212,-8.363882 h -9.80065 -9.80066 l -4.84503,8.467811 -4.84503,8.467811 4.87465,8.332189 4.87465,8.332191 h 9.80615 9.80615 z M 229.68001,80.138679 c 2.508,-4.474049 4.56,-8.511024 4.56,-8.971056 0,-0.460032 -1.99804,-4.363009 -4.44008,-8.673283 l -4.44007,-7.836862 -10.124,0.27126 -10.12399,0.271261 -4.6902,7.951239 -4.6902,7.951239 4.92641,8.60876 4.92642,8.608761 9.76785,-0.02334 9.76786,-0.02334 z m 61.45836,-0.413499 c 5.28056,-9.17123 5.36145,-7.978987 -1.31735,-19.414685 l -3.8257,-6.550496 h -9.501 c -5.22555,0 -9.68817,0.324 -9.91695,0.72 -0.22877,0.396 0.34609,3.959999 1.27747,7.919999 0.93138,3.96 2.64482,11.430832 3.80764,16.601849 l 2.11421,9.401848 6.34469,-0.281849 6.34468,-0.281848 z m 51.60871,-0.765182 c 1.15758,-5.148 2.86672,-12.6 3.7981,-16.56 0.93138,-3.96 1.50624,-7.523999 1.27747,-7.919999 -0.22877,-0.396 -4.6914,-0.72 -9.91695,-0.72 h -9.501 l -3.82569,6.550496 c -6.58332,11.272206 -6.4774,10.516158 -2.4536,17.512642 6.52021,11.337178 5.52931,10.496861 12.37793,10.496861 h 6.13906 z m 70.99506,0.751239 4.92641,-8.60876 -4.6902,-7.951239 -4.6902,-7.951239 -10.12399,-0.271261 -10.12399,-0.27126 -4.44008,7.836862 c -2.44204,4.310274 -4.44007,8.213251 -4.44007,8.673283 0,0.460032 2.052,4.497007 4.56,8.971056 l 4.56,8.134633 9.76785,0.02334 9.76785,0.02334 z M 254.41306,69.359998 c 0.007,-0.396 -1.58247,-7.974598 -3.53256,-16.841329 l -3.54561,-16.121329 -5.65365,0.281329 -5.65365,0.28133 -4.8173,8.329514 -4.8173,8.329514 4.06137,7.030486 c 2.23376,3.866767 4.48423,7.570485 5.00106,8.230485 1.03012,1.315484 18.93428,1.76881 18.95764,0.48 z m 67.54724,-7.546846 4.68028,-8.254177 -2.22312,-3.979488 c -1.22271,-2.188719 -3.35908,-5.923488 -4.74749,-8.299488 l -2.52437,-4.32 h -9.94559 -9.94559 l -2.52437,4.32 c -1.3884,2.376 -3.52477,6.110769 -4.74749,8.299488 l -2.22312,3.979488 4.68029,8.254177 4.68028,8.254178 h 10.08 10.08 z m 61.38182,-0.02396 4.62211,-8.24412 -4.7959,-8.292537 -4.79589,-8.292538 -5.65365,-0.28133 -5.65366,-0.281329 -3.54561,16.121329 c -1.95008,8.866731 -3.53973,16.445329 -3.53256,16.841329 0.007,0.396 4.22505,0.709496 9.37305,0.696657 l 9.36001,-0.02334 z m -95.0398,-12.589195 c 1.23552,-1.98 3.47001,-5.796489 4.96555,-8.481087 l 2.71915,-4.881086 -4.7135,-8.312579 -4.71351,-8.312579 -10.08,0.0067 -10.08,0.0067 -2.95855,5.37248 -2.95855,5.37248 2.26572,9.608374 c 3.30138,14.000402 2.4902,13.220623 13.75311,13.220623 h 9.55419 z m 60.11675,1.793875 c 0.53163,-0.993368 1.98618,-6.129892 3.23232,-11.414498 l 2.26572,-9.608374 -2.95855,-5.37248 -2.95855,-5.37248 -10.08,-0.0067 -10.08,-0.0067 -4.7135,8.312579 -4.71351,8.312579 2.71916,4.881086 c 1.49553,2.684598 3.73003,6.501087 4.96554,8.481087 l 2.2464,3.6 h 9.55418 c 8.37087,0 9.6739,-0.223694 10.52079,-1.806125 z"
       id="path4" />
  </g>
</svg>
